<!--?xml version="1.0" encoding="utf-8"?-->
<!-- Generator: Adobe Illustrator 22.1.0, SVG Export Plug-In . SVG Version: 6.00 Build 0)  -->
<svg version="1.1" id="_x32_" xmlns="http://www.w3.org/2000/svg" xmlns:xlink="http://www.w3.org/1999/xlink" x="0px" y="0px" viewBox="0 0 800 794.2" style="enable-background:new 0 0 800 794.2;" xml:space="preserve">
<style type="text/css">
	.st0{fill:#8BFFC9;}
	.st1{fill:#A26400;}
	.st2{fill:#E7FFFE;}
</style>
<g>
	<path class="st0" d="M792.8,396.1c0-0.8-0.2-1.6-0.3-2.5c-0.3-1.9-0.9-3.8-1.8-5.7c-1.1-2.2-5.2-10.1-14-18.2
		c-4.8-4.4-10.4-8.3-16.5-11.3c0.2-1.7,0.2-3.4,0.2-5.1c0-13.6-5-25.5-9.1-33.2c-2.4-4.3-5-8.3-7.7-11.4c-1.8-2.1-3.5-3.7-5.3-5.2
		l-0.7-0.6c-1.7-1.2-6.3-4.5-13.5-4.9l-0.2,0c0.2-3,0.4-6,0.4-9c0-10.4-1.4-21.4-4.2-32.8c-11.6-47-46.2-101.2-82.3-128.8
		c-13.3-10.1-34.3-24.8-59.1-36.8c-26.7-13-51-19.6-72.2-19.6c-2.6,0-5.2,0.1-7.8,0.3c-1.1-4.4-3.2-7.3-4.2-8.8
		c-0.2-0.2-0.3-0.4-0.5-0.7c-2.3-2.9-5.2-5.6-9.1-8.4c-4.5-3.2-20.9-13.8-40.8-13.9c-1.6,0-3.1,0.1-4.7,0.2
		c-3-6.1-6.8-11.7-11.2-16.5c-8-8.8-16-13-18.3-14.2c-0.8-0.4-1.7-0.7-2.5-1c-2.3-0.8-4.6-1.1-7-1.1c-0.3,0-0.6,0-1,0
		c-1,0-2,0.2-3,0.4c-1.9,0.3-3.8,0.9-5.6,1.8c-2.2,1.1-10.1,5.2-18.3,14.1c-4.4,4.8-8.2,10.4-11.2,16.5c-1.6-0.2-3.2-0.2-4.9-0.2
		c-13.6,0-25.6,5-33.3,9.2c-4.3,2.4-8.3,5.1-11.4,7.8c-2,1.8-3.7,3.5-5.1,5.3l-0.6,0.8c-0.9,1.3-3,4.2-4.1,8.7
		c-2.7-0.2-5.4-0.3-8.1-0.3c-21.2,0-45.5,6.6-72.2,19.6c-24.8,12-45.8,26.7-59.1,36.8c-36.1,27.7-70.7,81.8-82.3,128.8
		c-2.8,11.3-4.2,22.3-4.2,32.8c0,3,0.2,6,0.4,8.9c-7,0.4-11.5,3.6-13.2,4.9c-0.2,0.2-0.5,0.3-0.7,0.5c-2.9,2.3-5.6,5.2-8.5,9.1
		c-3.3,4.6-13.9,20.9-14,40.7c0,1.6,0.1,3.1,0.2,4.7c-6.1,3-11.7,6.8-16.5,11.2c-8.5,7.7-12.7,15.1-14.1,17.9
		c-0.4,0.9-0.8,1.8-1.1,2.7c-0.9,2.7-1.3,5.4-1.2,8c0,0.9,0.1,1.9,0.3,2.8c0.3,2,0.9,3.9,1.9,5.9c1.4,2.9,5.5,10.3,14,18.1
		c4.8,4.4,10.4,8.3,16.5,11.3c-0.2,1.7-0.2,3.4-0.2,5c0,13.6,5,25.5,9.1,33.2c2.4,4.3,5,8.3,7.7,11.4c1.8,2,3.5,3.7,5.3,5.1l0.8,0.6
		c1.7,1.2,6.3,4.6,13.1,4.9c0.2,0,0.4,0,0.7,0c-0.2,2.9-0.4,5.9-0.4,8.9c0,10.4,1.4,21.4,4.2,32.8c11.6,47,46.2,101.2,82.3,128.8
		c13.3,10.2,34.3,24.8,59.1,36.8c26.7,13,51,19.6,72.2,19.6c2.7,0,5.4-0.1,8.1-0.3c1.1,4.5,3.3,7.5,4.2,8.8c0.2,0.2,0.3,0.5,0.5,0.7
		c2.3,2.9,5.2,5.6,9.1,8.4c4.5,3.2,20.9,13.8,40.8,13.8c1.6,0,3.1-0.1,4.7-0.2c3,6.1,6.8,11.7,11.2,16.5c8,8.8,15.9,13,18.2,14.1
		c1.9,0.9,4,1.6,6.1,1.9c0.8,0.1,1.6,0.2,2.3,0.3c0.3,0,0.8,0,1.1,0c2.4,0,4.7-0.4,7-1.1c0.6-0.2,1.1-0.4,1.7-0.6
		c0.3-0.1,0.7-0.3,1.1-0.5c2.2-1.1,10.1-5.3,18.1-14.1c4.4-4.8,8.2-10.5,11.2-16.5c1.6,0.2,3.2,0.2,4.8,0.2c13.6,0,25.6-5,33.2-9.2
		c4.3-2.4,8.3-5.1,11.5-7.8c2.1-1.8,3.7-3.5,5.1-5.3l0.5-0.7c0.9-1.3,3.1-4.2,4.2-8.7c2.6,0.2,5.2,0.3,7.8,0.3
		c21.2,0,45.5-6.6,72.2-19.6c24.7-12,45.8-26.7,59.1-36.8c36.1-27.7,70.7-81.8,82.3-128.8c2.8-11.3,4.2-22.4,4.2-32.7
		c0-3-0.2-5.9-0.4-8.8c7-0.4,11.5-3.6,13.2-4.8c0.2-0.2,0.4-0.3,0.7-0.5c2.9-2.3,5.6-5.1,8.5-9.1c3.3-4.6,13.9-20.9,14-40.7
		c0-1.6-0.1-3.1-0.2-4.7c6.1-3,11.7-6.8,16.5-11.2c8.5-7.7,12.7-15.1,14.1-17.9c0.2-0.3,0.3-0.6,0.4-0.9c0.3-0.6,0.5-1.3,0.7-1.9
		C792.5,401.8,792.9,399.1,792.8,396.1z" style="fill: rgb(0, 0, 0);"></path>
	<path class="st1" d="M127,418.1c9.6-6.2,18.9-10.8,25.7-13.8c3.4-1.5,6.2-2.7,8.1-3.4c1-0.4,1.7-0.7,2.2-0.8
		c0.5-0.2,0.8-0.3,0.8-0.3l0,0c0.3-0.1,0.5-0.3,0.8-0.5l0.2-0.2l0.4-0.5l0.1-0.4l0.1-0.4v-0.1l0-0.4l-0.1-0.5l0-0.2l-0.1-0.2
		l-0.3-0.5l-0.2-0.3l-0.4-0.3l-0.3-0.2l-0.1-0.1c0,0-0.2-0.1-0.8-0.3c-3.8-1.4-21.4-8.4-39.5-20.8c-18.1-12.4-36.6-30.3-42.9-53.2
		c0-0.5-0.1-1.1-0.5-1.7c-0.3-0.4-0.7-0.8-1.2-1.1c-0.5-0.3-1-0.4-1.5-0.4c-1.5,0.1-2.2,0.7-3.1,1.3c-1.4,1.1-3,2.8-4.6,5.1
		c-4.8,6.7-10.3,17.9-10.3,29.3c0,5.9,1.6,12,5.8,17.1c-13.2,2.1-22.5,7.7-28.6,13.2c-6.8,6.1-9.6,12-9.7,12.1l0,0.1
		c-0.1,0.3-0.2,0.7-0.2,1.1l0,0.2c0,0.3,0.1,0.5,0.2,0.8c0.1,0.2,2.8,6,9.6,12.2c6,5.5,15.3,11.3,28.5,13.5
		c-4.2,5.1-5.9,11.3-5.9,17.3c0,8.7,3.2,17.2,6.7,23.8c1.8,3.3,3.7,6,5.4,8c0.9,1,1.7,1.8,2.5,2.5c0.8,0.6,1.6,1.2,3.1,1.3
		c0.9,0.1,2.1-0.5,2.6-1.4c0.4-0.6,0.5-1.2,0.5-1.7C87,448.9,107.7,430.4,127,418.1z M40.7,386.8c6.1-5.3,15.5-10.7,29.3-12
		c13,7.6,25.5,8.9,25.7,8.9c1.3,0.1,2.5-0.8,2.7-2.2c0.1-1.3-0.8-2.5-2.2-2.7l0,0l-0.5-0.1c-2.4-0.3-13.2-2.1-23.8-8.5
		c-5.5-4.7-7.4-10.6-7.5-17c0-7.5,2.9-15.5,6.2-21.5c1.7-3,3.4-5.5,4.9-7.2c0.3-0.4,0.6-0.7,0.9-1c7.6,25.6,28.8,44.4,48,56.9
		c9.9,6.4,19.3,11.2,26.3,14.4l-117.2-0.5C35.1,392.4,37.4,389.6,40.7,386.8z M76,470.5c-0.7-0.7-1.5-1.6-2.3-2.8
		c-4.3-5.8-9.5-16.8-9.5-26.8c0-6.5,2-12.4,7.6-17.1c6.1-3.6,12.2-5.7,16.7-6.9c2.3-0.6,4.2-1,5.6-1.2c0.7-0.1,1.2-0.2,1.5-0.2
		l0.5-0.1c1.3-0.1,2.3-1.3,2.2-2.6c-0.1-1.3-1.3-2.3-2.6-2.2l0,0c-0.2,0-12.7,1.2-25.8,8.7c-14.3-1.4-23.8-7.2-29.8-12.8
		c-2.9-2.7-5-5.3-6.4-7.3l117.2,0.5c-7,3.1-16.4,7.8-26.4,14.2C105.1,426.4,83.8,445,76,470.5z" style="fill: rgb(255, 52, 0);"></path>
	<path class="st1" d="M773.1,397.2c0-0.3-0.1-0.5-0.2-0.8c-0.1-0.2-2.8-6-9.6-12.2c-6-5.5-15.3-11.3-28.5-13.5
		c4.2-5.2,5.9-11.3,5.9-17.3c0-8.7-3.2-17.2-6.7-23.8c-1.8-3.3-3.7-6-5.4-8c-0.9-1-1.7-1.8-2.5-2.5c-0.9-0.6-1.6-1.2-3.1-1.3
		c-0.4,0-1,0.1-1.5,0.4c-0.7,0.4-1.2,1.1-1.5,1.7c-0.1,0.4-0.1,0.7-0.2,1l0,0c-6.8,24.5-27.6,43.1-46.9,55.4
		c-9.6,6.2-18.9,10.8-25.7,13.8c-3.4,1.5-6.2,2.7-8.1,3.4c-1,0.4-1.7,0.7-2.2,0.8c-0.5,0.2-0.8,0.3-0.8,0.3l0,0
		c-0.3,0.1-0.5,0.3-0.8,0.5l-0.2,0.2l-0.4,0.5l-0.1,0.4l-0.1,0.3v0.1l0,0.4l0.1,0.5l0,0.2l0.1,0.2l0.3,0.5l0.2,0.3l0.4,0.3l0.4,0.2
		l0.1,0.1c0,0,0.3,0.1,0.8,0.3c3.8,1.4,21.4,8.4,39.5,20.8c18.1,12.4,36.6,30.3,42.9,53.2c0,0.5,0.1,1.1,0.5,1.7
		c0.3,0.4,0.7,0.8,1.2,1.1c0.5,0.3,1,0.4,1.5,0.4c1.5-0.1,2.2-0.7,3.1-1.3c1.4-1.1,2.9-2.8,4.6-5.1c4.8-6.7,10.3-17.9,10.3-29.3
		c0-5.9-1.6-12-5.8-17.1c13.2-2.1,22.5-7.8,28.6-13.2c6.8-6.1,9.6-12,9.7-12.1l0-0.1c0.1-0.3,0.2-0.7,0.2-1.1L773.1,397.2z
		 M759.4,407.6c-6.1,5.3-15.5,10.7-29.3,12c-13-7.6-25.5-8.9-25.7-8.9c-1.3-0.1-2.5,0.8-2.7,2.2c-0.1,1.3,0.8,2.5,2.2,2.7l0,0
		l0.5,0.1c2.4,0.3,13.1,2.1,23.8,8.5c5.5,4.7,7.4,10.6,7.5,16.9c0,7.5-2.9,15.5-6.2,21.5c-1.7,3-3.4,5.5-4.9,7.2
		c-0.3,0.4-0.6,0.7-0.9,1c-7.6-25.6-28.8-44.4-48-56.9c-9.9-6.4-19.3-11.2-26.3-14.4l117.2,0.5C764.9,401.9,762.6,404.7,759.4,407.6
		z M649.2,394.5c7-3.1,16.4-7.8,26.4-14.2c19.4-12.4,40.6-31,48.5-56.5c0.7,0.7,1.5,1.6,2.3,2.8c4.3,5.8,9.5,16.8,9.5,26.8
		c0,6.5-2,12.4-7.6,17.1c-6.1,3.6-12.2,5.7-16.7,6.9c-2.3,0.6-4.2,1-5.6,1.2c-0.7,0.1-1.2,0.2-1.5,0.2l-0.5,0.1
		c-1.3,0.1-2.3,1.3-2.2,2.6c0.1,1.3,1.3,2.3,2.6,2.2l0,0c0.2,0,12.7-1.2,25.8-8.7c14.3,1.4,23.8,7.2,29.8,12.7
		c2.9,2.7,5,5.3,6.4,7.2L649.2,394.5z" style="fill: rgb(255, 52, 0);"></path>
	<path class="st1" d="M322.2,79.8c0.6,0.4,1.2,0.5,1.7,0.5c24.5,6.7,43.1,27.4,55.5,46.7c6.2,9.6,10.8,18.8,13.9,25.6
		c1.5,3.4,2.7,6.2,3.5,8.1c0.4,1,0.7,1.7,0.9,2.2c0.2,0.5,0.3,0.8,0.3,0.8l0,0c0.1,0.3,0.3,0.5,0.5,0.8l0.2,0.2l0.5,0.4l0.4,0.1
		l0.4,0.1l0.1,0l0.4,0l0.5-0.1l0.2,0l0.2-0.1l0.5-0.3l0.3-0.2l0.3-0.4l0.2-0.3l0.1-0.1c0,0,0.1-0.2,0.3-0.8
		c1.4-3.8,8.3-21.4,20.6-39.6c12.3-18.2,30.1-36.7,53.1-43.1c0.5,0,1.1-0.2,1.7-0.5c0.9-0.5,1.5-1.7,1.4-2.6
		c-0.1-1.5-0.7-2.2-1.3-3.1c-1.1-1.4-2.8-2.9-5-4.5c-6.7-4.7-17.9-10.2-29.3-10.2c-6,0-12.1,1.7-17.2,5.8
		c-2.1-13.2-7.8-22.5-13.3-28.5c-6.2-6.8-12-9.5-12.2-9.6l-0.1,0c-0.3-0.1-0.7-0.2-1-0.2l-0.2,0c-0.2,0-0.5,0.1-0.7,0.2
		c-0.2,0.1-6,2.9-12.2,9.6c-5.5,6-11.2,15.3-13.3,28.5c-5.1-4.2-11.2-5.9-17.2-5.8c-8.7,0-17.3,3.2-23.8,6.8c-3.3,1.8-6,3.7-8,5.4
		c-1,0.9-1.8,1.7-2.5,2.5c-0.6,0.9-1.2,1.6-1.3,3.1C320.7,78.1,321.3,79.4,322.2,79.8z M402.6,33.6c2.1,1.5,4.9,3.7,7.8,7
		c5.3,6.1,10.8,15.4,12.1,29.3c-7.5,13-8.8,25.5-8.8,25.7c-0.1,1.3,0.8,2.5,2.2,2.7c1.3,0.1,2.5-0.8,2.7-2.2l0,0l0.1-0.5
		c0.3-2.4,2.1-13.2,8.4-23.8c4.7-5.5,10.6-7.5,17-7.5c7.5,0,15.5,2.9,21.5,6.2c3,1.6,5.5,3.4,7.2,4.9c0.4,0.3,0.7,0.6,1,0.9
		c-25.6,7.7-44.3,28.9-56.7,48.3c-6.4,9.9-11.1,19.4-14.3,26.3V33.6z M329.5,73.8c5.8-4.3,16.8-9.6,26.8-9.6c6.4,0,12.3,2,17,7.5
		c3.6,6.1,5.7,12.1,7,16.7c0.6,2.3,1,4.2,1.2,5.6c0.1,0.7,0.2,1.2,0.2,1.5l0.1,0.5c0.1,1.3,1.3,2.3,2.6,2.2c1.3-0.1,2.3-1.3,2.2-2.6
		l0,0c0-0.2-1.3-12.7-8.8-25.7C379.3,55.6,385,46,390.5,40c2.7-2.9,5.3-5,7.2-6.4v117.2c-3.2-7-7.9-16.4-14.3-26.3
		c-12.5-19.3-31.2-40.5-56.7-48.3C327.4,75.5,328.4,74.7,329.5,73.8z" style="fill: rgb(255, 52, 0);"></path>
	<path class="st1" d="M456,130.4c0,7.8,2.4,15.7,7.4,22.4c7.5,10,20,16.5,31.9,16.5c7.6,0,15.1-2.8,20.4-9.2
		c3.4-4.1,5.6-8.3,6.5-12.7c26,4.8,44,14.3,58.3,25.8l0.5,0.2c-0.4,0.2-0.8,0.4-1.1,0.7c-2.6,2-4.6,5.3-4.5,9.4
		c0,0.7,0.1,1.5,0.2,2.2c1.5,10,10.2,16.7,19.1,16.7c3.2,0,6.4-0.8,9.2-2.7c5.1-3.3,7.8-8.4,8.3-13.9c3,2.8,7.5,7.3,12,13.2
		c5.9,7.6,11.7,17.3,14,27.7c-1.1-0.3-2.2-0.5-3.4-0.5c-3.9,0-7.9,1.5-11.2,4.5c-3.2,2.9-5.5,7.4-5.5,12.8c0,3,0.7,6.4,2.2,9.9
		c3.7,8.8,11.6,13.3,19.5,13.3c11,0,22.2-8.5,24.1-23.7c0.2-1.7,0.3-3.3,0.3-5c0-1.3-0.1-2.7-0.2-4c8.5,19.6,10.7,36.9,10.7,49.5
		c0,5.7-0.4,10.3-1,13.8c-1.1-1.2-2.3-2.3-3.6-3.1c-2.2-1.2-4.7-1.7-7.2-1.7c-4,0-8.1,1.3-11.6,3.5c-3.5,2.1-6.6,5.1-8.4,8.7
		c-1.5,3-2.3,6.5-2.3,10.1c0,6.3,2.2,13,6.7,18.3c4.5,5.2,11.4,8.9,20.1,8.9c0.6,0,1.3,0,1.9-0.1h0c9.5-0.6,18.4-5.9,24.7-15
		c6.3-9.1,10.3-21.9,10.3-37.8c0-8.5-1.1-17.9-3.6-28.1c-11.3-46-44.6-94.5-75.1-117.9c-15.1-11.5-34.8-24.6-55.7-34.8
		c-21-10.2-43.2-17.6-63.6-17.6c-12.8,0-24.9,2.9-35.1,10.1C461.2,107.9,456,119.1,456,130.4z M506.3,95.7
		c19.2,0,40.9,7.1,61.5,17.1c20.6,10,40.1,22.9,54.9,34.3c29.5,22.4,62.5,70.5,73.4,115.2c2.4,9.8,3.5,18.8,3.5,26.9
		c0,15.1-3.7,26.9-9.4,35c-5.7,8.1-13.2,12.5-21.1,13c-0.6,0-1.1,0-1.7,0c-7.4,0-12.8-3-16.4-7.2c-3.7-4.3-5.6-9.9-5.6-15.1
		c0-2.9,0.6-5.7,1.7-7.9c1.3-2.5,3.7-5,6.6-6.7c2.9-1.7,6.2-2.8,9.2-2.8c1.8,0,3.5,0.4,4.9,1.1c1.4,0.8,2.6,1.9,3.6,3.7
		c0.5,0.9,0.8,2.2,0.8,3.6c0,1.8-0.4,3.7-1,5.1c-0.3,0.7-0.6,1.3-0.9,1.6l-0.3,0.3l0,0l0,0c-1.2,0.5-1.8,1.8-1.4,3
		c0.4,1.3,1.8,2,3.1,1.5v0c1.2-0.4,1.9-1.1,2.5-1.9c1.7-2.3,2.9-5.8,2.9-9.6l0-0.1c0.3-1.2,2.5-9.3,2.5-22.2
		c0-17.2-3.9-42.8-21.5-71.1c-0.2-0.3-0.5-0.6-0.8-0.8c-2.4-4.9-5.3-10-8.9-15.1c-10.3-14.9-25.4-30.7-45-47
		c-16.7-13.8-35.9-23.2-53.8-29.1c-17.9-5.9-34.5-8.4-46-8.5c-6.2,0-10.9,0.7-14.1,2.3c-6.9,3.6-9.9,9.5-9.8,15
		c0,3.6,1.2,7.1,3.2,9.8c2,2.7,4.8,4.7,8.2,5.2c0.7,0.1,1.3,0.1,1.9,0.1c3.6,0,6.7-1.6,8.8-3.8c2.1-2.2,3.3-5,3.3-7.8
		c0-2.1-0.8-4.4-2.7-5.8c-1.1-0.8-2.6-0.6-3.4,0.5c-0.8,1.1-0.6,2.6,0.5,3.4v0c0.5,0.4,0.8,1,0.8,2c0,1.3-0.7,3.1-2,4.5
		c-1.3,1.4-3.1,2.3-5.3,2.3l-1.2-0.1c-1.8-0.3-3.6-1.5-5-3.3c-1.4-1.9-2.3-4.4-2.3-6.9c0-3.8,1.8-7.7,7.3-10.7
		c1.7-0.9,6-1.7,11.8-1.7c10.8,0,27,2.4,44.5,8.2c17.4,5.8,36.2,14.9,52.2,28.3c19.3,16,34.1,31.6,44.1,46
		c9.9,14.4,14.9,27.6,14.9,38.7c0,1.5-0.1,3-0.3,4.4c-1.7,13.1-10.7,19.4-19.3,19.5c-6.1,0-12-3.2-15-10.4c-1.3-3.1-1.8-5.7-1.8-8
		c0-4.1,1.6-7.1,3.9-9.3c2.3-2.1,5.3-3.2,7.9-3.2c1.7,0,3,0.4,4,1.2c2.1,1.7,2.9,4,2.9,6.3c0,1.8-0.5,3.6-1.3,4.7
		c-0.4,0.6-0.8,1-1.2,1.2l-0.9,0.3l-0.2,0c-1.3-0.2-2.5,0.8-2.7,2.1c-0.2,1.3,0.8,2.5,2.1,2.7l0.9,0c1.3,0,2.6-0.4,3.6-1.1
		c1.5-1,2.7-2.6,3.4-4.3c0.8-1.7,1.2-3.7,1.2-5.7c0-2.8-0.9-5.7-2.9-8.2l0-0.1c-1.8-13.3-8.8-25.3-15.8-34.3
		c-7-9-13.9-15.1-15.7-16.6l-0.5-0.3c-1.1-4.9-3.9-9.7-8.2-13.9c-5.6-5.4-15.1-11.9-28.4-18.7c-13.3-6.8-30.2-13.8-50.5-20
		c-1.3-0.4-2.6,0.3-3,1.6c-0.4,1.3,0.3,2.6,1.6,3c20,6.1,36.7,13,49.7,19.7c13,6.6,22.3,13,27.3,17.9c4.9,4.7,7.3,10.4,7.3,15.3
		c0,4.7-2,8.8-6.3,11.6c-2.1,1.3-4.3,1.9-6.6,1.9c-6.6,0-13.3-5.1-14.4-12.6c-0.1-0.5-0.1-1-0.1-1.5c0-2.7,1.1-4.3,2.6-5.6
		c1.6-1.2,3.8-1.9,5.8-1.9c1.9,0,3.5,0.7,3.9,1.2c1.3,1.5,1.7,2.8,1.7,3.7c0,0.7-0.2,1.2-0.5,1.5c-0.3,0.3-0.7,0.5-1.4,0.5l-0.4,0
		c-1.3-0.2-2.6,0.7-2.7,2c-0.2,1.3,0.7,2.6,2,2.7l0,0l1.1,0.1c1.9,0,3.6-0.7,4.8-2c1.2-1.3,1.9-3,1.9-4.9c0-2.3-1-4.6-2.8-6.8
		c-1.9-2.1-4.7-2.9-7.5-2.9c-1.4,0-2.9,0.2-4.3,0.6c0.2-0.9-0.1-1.9-0.8-2.5l0,0c-14.9-12-33.9-22.1-61-26.9
		c-0.1-2.7-0.7-5.5-1.8-8.3c-0.5-1.2-1.9-1.9-3.1-1.4c-1.2,0.5-1.9,1.9-1.4,3.1c1,2.6,1.5,5.1,1.5,7.4c0,4.5-1.8,8.8-5.8,13.7
		c-4.2,5.1-10.1,7.4-16.6,7.4c-10.2,0-21.6-5.8-28-14.5c-4.3-5.8-6.4-12.7-6.4-19.5c0-9.9,4.5-19.6,13.1-25.5
		C483.3,98.4,494.3,95.7,506.3,95.7z" style="fill: rgb(255, 52, 0);"></path>
	<path class="st1" d="M130.6,341.9L130.6,341.9c0.7,0,1.3,0,2,0c8.8,0,15.6-3.7,20.1-8.9c4.5-5.2,6.7-11.9,6.7-18.3
		c0-3.6-0.7-7.1-2.3-10.1c-1.8-3.6-4.9-6.5-8.4-8.7c-3.5-2.1-7.6-3.4-11.7-3.5c-2.5,0-5,0.5-7.2,1.7c-1.4,0.7-2.6,1.8-3.7,3.1
		c-0.5-3.5-0.9-8.2-0.9-13.8c0-12.6,2.2-29.8,10.7-49.5c-0.1,1.3-0.2,2.7-0.2,4c0,1.7,0.1,3.4,0.3,5c1.9,15.2,13.1,23.7,24.1,23.7
		c7.9,0,15.8-4.5,19.5-13.3c1.5-3.6,2.2-6.9,2.2-9.9c0-5.5-2.3-9.9-5.5-12.8c-3.2-2.9-7.3-4.5-11.2-4.5c-1.1,0-2.3,0.2-3.3,0.5
		c2.4-10.4,8.1-20.1,14-27.7c4.5-5.8,9-10.4,12-13.2c0.5,5.5,3.2,10.6,8.3,13.9c2.9,1.8,6.1,2.7,9.2,2.7c9,0,17.7-6.7,19.1-16.7l0,0
		c0.1-0.8,0.2-1.5,0.2-2.2c0-4.1-1.9-7.4-4.5-9.4c-0.4-0.3-0.7-0.5-1.1-0.7l0.5-0.2l0,0c14.3-11.5,32.3-21.1,58.3-25.8
		c0.9,4.4,3.1,8.6,6.5,12.7c5.2,6.4,12.7,9.2,20.4,9.2c11.9,0,24.5-6.5,31.9-16.5c5-6.7,7.4-14.6,7.4-22.4
		c0-11.3-5.2-22.6-15.2-29.5c-10.3-7.1-22.4-10.1-35.2-10.1c-20.4,0-42.6,7.4-63.6,17.6c-21,10.2-40.7,23.2-55.7,34.8
		c-30.6,23.4-63.8,71.8-75.1,117.9c-2.5,10.2-3.6,19.6-3.6,28.1c0,15.9,3.9,28.7,10.3,37.8C112.2,336,121.1,341.4,130.6,341.9z
		 M103.9,262.2c10.9-44.7,43.9-92.8,73.4-115.2c14.9-11.4,34.3-24.2,54.9-34.3c20.6-10,42.3-17.1,61.5-17.1c12.1,0,23,2.8,32.4,9.2
		c8.6,6,13.1,15.6,13.1,25.5c0,6.8-2.1,13.7-6.4,19.5c-6.4,8.7-17.9,14.6-28,14.5c-6.5,0-12.4-2.3-16.6-7.4c-4-4.9-5.8-9.2-5.8-13.7
		c0-2.3,0.5-4.8,1.5-7.4c0.5-1.2-0.1-2.6-1.4-3.1c-1.2-0.5-2.6,0.1-3.1,1.4c-1.1,2.8-1.7,5.6-1.8,8.3c-27.1,4.9-46.1,14.9-61,26.9
		c-0.8,0.6-1,1.6-0.8,2.5c-1.4-0.4-2.9-0.6-4.3-0.6c-2.9,0-5.6,0.8-7.5,2.9c-1.9,2.2-2.8,4.6-2.8,6.8c0,1.9,0.7,3.6,1.9,4.9
		c1.2,1.3,3,2,4.8,2l1.1-0.1c1.3-0.2,2.2-1.4,2-2.7c-0.2-1.3-1.4-2.2-2.7-2v0l-0.4,0c-0.7,0-1.1-0.2-1.4-0.5
		c-0.3-0.3-0.5-0.8-0.5-1.5c0-0.9,0.4-2.2,1.7-3.7c0.4-0.5,1.9-1.2,3.9-1.2c2,0,4.2,0.6,5.8,1.9c1.6,1.2,2.6,2.9,2.6,5.6
		c0,0.5,0,1-0.1,1.5v0c-1,7.4-7.8,12.6-14.4,12.6c-2.3,0-4.6-0.6-6.6-1.9c-4.3-2.8-6.3-6.8-6.3-11.5c0-4.9,2.4-10.6,7.3-15.3
		c5-4.8,14.3-11.2,27.3-17.9c13-6.6,29.7-13.6,49.7-19.7c1.3-0.4,2-1.7,1.6-3c-0.4-1.3-1.7-2-3-1.6c-20.2,6.2-37.2,13.2-50.5,20
		c-13.3,6.8-22.8,13.3-28.4,18.7c-4.3,4.1-7.1,9-8.2,13.9l-0.5,0.3v0c-1.8,1.5-8.7,7.6-15.7,16.6c-7,9-14,20.9-15.8,34.3l0,0.1
		c-2,2.5-2.9,5.4-2.9,8.2c0,2.7,0.8,5.3,2.1,7.4c0.7,1,1.5,1.9,2.5,2.6c1,0.7,2.3,1.1,3.6,1.1l0.9-0.1c1.3-0.2,2.3-1.4,2.1-2.7
		c-0.2-1.3-1.4-2.3-2.7-2.1l-0.3,0l-0.9-0.3c-0.6-0.4-1.2-1.1-1.7-2.2c-0.5-1.1-0.8-2.4-0.8-3.8c0-2.4,0.8-4.7,2.9-6.3l0,0
		c0.9-0.7,2.3-1.2,4-1.2c2.5,0,5.6,1.1,7.9,3.2c2.3,2.1,3.9,5.1,3.9,9.3c0,2.3-0.5,5-1.8,8c-3.1,7.1-8.9,10.3-15,10.4
		c-8.5,0-17.6-6.4-19.3-19.5c-0.2-1.5-0.3-2.9-0.3-4.4c0-11.1,5-24.3,14.9-38.7c9.9-14.4,24.8-30,44.1-46
		c16.1-13.3,34.8-22.5,52.2-28.3c17.4-5.8,33.6-8.2,44.5-8.2c5.8,0,10.1,0.8,11.8,1.7c5.5,3,7.2,6.9,7.3,10.7c0,2.5-0.9,5-2.3,6.9
		c-1.4,1.9-3.2,3.1-5,3.3l-1.2,0.1c-2.2,0-4-0.9-5.3-2.3c-1.3-1.4-2-3.2-2-4.5c0-1,0.3-1.6,0.8-2c1.1-0.8,1.3-2.3,0.5-3.4
		c-0.8-1.1-2.3-1.3-3.4-0.5v0c-1.9,1.4-2.7,3.7-2.7,5.8c0,2.8,1.2,5.6,3.3,7.8c2.1,2.2,5.1,3.8,8.8,3.8c0.6,0,1.2,0,1.9-0.1l0,0
		c3.4-0.5,6.2-2.5,8.2-5.2c2-2.7,3.2-6.1,3.2-9.8c0-5.5-3-11.4-9.8-15c-3.2-1.6-7.8-2.2-14.1-2.3c-11.5,0-28.1,2.5-46,8.5
		c-17.9,5.9-37.1,15.3-53.8,29.1c-19.6,16.2-34.7,32.1-45,47c-3.6,5.2-6.5,10.2-8.9,15.1c-0.3,0.2-0.6,0.4-0.8,0.8
		c-17.5,28.2-21.5,53.8-21.5,71.1c0,12.9,2.2,21,2.5,22.2l0,0.1c0,2.5,0.6,4.9,1.4,6.9c0.4,1,0.9,1.9,1.5,2.7
		c0.6,0.8,1.3,1.5,2.5,1.9c1.3,0.4,2.6-0.3,3.1-1.5c0.4-1.2-0.2-2.5-1.4-3l0,0c-0.1,0-0.9-1-1.4-2.3c-0.5-1.3-0.9-3.1-0.9-4.7
		c0-1.4,0.3-2.7,0.8-3.6c1-1.8,2.2-2.9,3.6-3.7c1.4-0.8,3.1-1.1,4.9-1.1c2.9,0,6.3,1,9.2,2.8c2.9,1.7,5.3,4.2,6.6,6.7
		c1.1,2.2,1.7,5,1.7,7.9c0,5.2-1.9,10.8-5.6,15.1c-3.7,4.3-9,7.2-16.4,7.2c-0.6,0-1.1,0-1.7,0h0c-7.9-0.5-15.4-4.8-21.1-13
		c-5.7-8.1-9.4-19.9-9.4-35C100.4,281.1,101.5,272.1,103.9,262.2z" style="fill: rgb(255, 52, 0);"></path>
	<path class="st1" d="M669.5,452.3L669.5,452.3L669.5,452.3L669.5,452.3L669.5,452.3c-0.7-0.1-1.4-0.1-2-0.1
		c-8.8,0-15.6,3.7-20.1,8.9c-4.5,5.2-6.7,11.9-6.7,18.3c0,3.6,0.7,7.1,2.3,10.1c1.8,3.6,4.9,6.5,8.4,8.6c3.5,2.1,7.6,3.4,11.6,3.5
		c2.5,0,5-0.5,7.2-1.7c1.4-0.7,2.6-1.8,3.7-3.1c0.5,3.5,0.9,8.2,0.9,13.8c0,12.6-2.2,29.8-10.7,49.5c0.1-1.3,0.2-2.7,0.2-4
		c0-1.7-0.1-3.4-0.3-5c-1.9-15.2-13.1-23.8-24.1-23.7c-7.9,0-15.8,4.5-19.5,13.3c-1.5,3.6-2.2,6.9-2.2,9.9c0,5.5,2.3,9.9,5.5,12.8
		c3.2,2.9,7.3,4.5,11.2,4.5c1.1,0,2.3-0.2,3.4-0.5c-2.4,10.4-8.1,20.1-14,27.7c-4.5,5.8-9,10.4-12,13.2c-0.5-5.5-3.2-10.6-8.3-13.9
		c-2.9-1.9-6.1-2.7-9.2-2.7c-9,0-17.7,6.7-19.1,16.7l0,0c-0.1,0.8-0.2,1.5-0.2,2.2c0,4.1,1.9,7.4,4.5,9.4c0.4,0.3,0.7,0.5,1.1,0.7
		l-0.5,0.3l0,0c-14.3,11.5-32.3,21.1-58.3,25.8c-0.9-4.4-3.1-8.6-6.5-12.7c-5.2-6.4-12.8-9.2-20.4-9.2c-11.9,0-24.5,6.5-31.9,16.5
		c-5,6.7-7.4,14.6-7.4,22.4c0,11.3,5.2,22.6,15.2,29.5c10.3,7.1,22.4,10.1,35.1,10.1c20.4,0,42.6-7.4,63.6-17.6
		c21-10.2,40.7-23.2,55.7-34.8c30.6-23.4,63.8-71.8,75.1-117.9c2.5-10.2,3.6-19.6,3.6-28.1c0-15.9-3.9-28.7-10.3-37.8
		C687.8,458.2,679,452.8,669.5,452.3z M696.1,532c-10.9,44.7-43.9,92.8-73.4,115.2c-14.9,11.4-34.3,24.2-54.9,34.2
		c-20.6,10-42.3,17.1-61.5,17.1c-12.1,0-23.1-2.8-32.4-9.2c-8.6-6-13.1-15.6-13.1-25.5c0-6.8,2.1-13.7,6.4-19.5
		c6.4-8.7,17.9-14.6,28-14.5c6.5,0,12.4,2.2,16.6,7.4c4,4.9,5.8,9.2,5.8,13.7c0,2.3-0.5,4.7-1.5,7.4c-0.5,1.2,0.1,2.6,1.4,3.1
		c1.2,0.5,2.6-0.1,3.1-1.4c1.1-2.8,1.7-5.6,1.8-8.3c27.1-4.9,46.1-14.9,61-26.9c0.8-0.6,1-1.6,0.8-2.5c1.4,0.4,2.9,0.6,4.3,0.6
		c2.9,0,5.6-0.7,7.5-2.9c1.9-2.2,2.8-4.6,2.8-6.8c0-1.9-0.7-3.6-1.9-4.9c-1.2-1.3-3-2-4.8-2l-1.2,0.1c-1.3,0.2-2.2,1.4-2,2.8
		c0.2,1.3,1.4,2.2,2.8,2l0,0l0.4,0c0.7,0,1.1,0.2,1.4,0.5c0.3,0.3,0.5,0.8,0.5,1.5c0,0.9-0.4,2.2-1.7,3.7c-0.4,0.5-1.9,1.2-3.9,1.2
		c-2,0-4.2-0.6-5.8-1.9c-1.6-1.2-2.6-2.9-2.6-5.6c0-0.5,0-1,0.1-1.5l0,0c1-7.5,7.8-12.6,14.3-12.6c2.3,0,4.6,0.6,6.6,1.9
		c4.3,2.8,6.3,6.8,6.3,11.5c0,4.9-2.4,10.6-7.3,15.3c-5,4.8-14.3,11.2-27.2,17.8c-13,6.6-29.7,13.6-49.7,19.7c-1.3,0.4-2,1.7-1.6,3
		c0.4,1.3,1.7,2,3,1.6c20.2-6.2,37.2-13.2,50.5-20c13.3-6.8,22.8-13.3,28.4-18.7c4.3-4.1,7.1-9,8.2-13.9l0.5-0.3l0,0
		c1.8-1.5,8.7-7.6,15.7-16.6c7-9,14-20.9,15.8-34.3l0-0.1c2-2.5,2.9-5.4,2.9-8.2c0-2.7-0.8-5.3-2.1-7.4c-0.7-1-1.5-1.9-2.5-2.6
		c-1-0.7-2.3-1.1-3.6-1.1l-1,0.1c-1.3,0.2-2.2,1.5-2,2.8c0.2,1.3,1.5,2.2,2.8,2l0.1,0l0.9,0.3c0.6,0.4,1.2,1.1,1.7,2.2
		c0.5,1.1,0.8,2.4,0.8,3.8c0,2.4-0.8,4.7-2.9,6.3c-0.9,0.7-2.3,1.2-4,1.2c-2.5,0-5.6-1.1-7.9-3.2c-2.3-2.1-3.9-5.1-3.9-9.3
		c0-2.3,0.5-5,1.8-8c3.1-7.1,8.9-10.3,15-10.4c8.5,0,17.6,6.4,19.3,19.5c0.2,1.4,0.3,2.9,0.3,4.4c0,11.1-5,24.3-14.9,38.7
		c-9.9,14.4-24.8,30-44.1,46c-16.1,13.3-34.8,22.5-52.2,28.3c-17.4,5.8-33.6,8.2-44.5,8.2c-5.8,0-10.1-0.8-11.8-1.7
		c-5.5-3-7.2-6.9-7.3-10.7c0-2.5,0.9-5,2.3-6.9c1.4-1.9,3.2-3.1,5-3.3l0,0l1.1-0.1c2.2,0,4,0.9,5.3,2.3c1.3,1.4,2,3.2,2,4.5
		c0,1-0.3,1.6-0.8,2c-1.1,0.8-1.3,2.3-0.4,3.4c0.8,1.1,2.3,1.3,3.4,0.4l0,0c1.9-1.4,2.7-3.7,2.7-5.8c0-2.8-1.2-5.6-3.3-7.8
		c-2.1-2.2-5.1-3.8-8.8-3.8c-0.6,0-1.2,0-1.9,0.1v0l0,0l0,0v0c-3.3,0.5-6.2,2.5-8.2,5.2c-2,2.7-3.2,6.1-3.2,9.8
		c-0.1,5.5,3,11.4,9.8,15c3.2,1.6,7.8,2.2,14.1,2.3c11.5,0,28.1-2.5,46-8.5c17.9-5.9,37.1-15.3,53.8-29.1c19.6-16.2,34.7-32.1,45-47
		c3.6-5.2,6.5-10.2,8.9-15.1c0.3-0.2,0.6-0.4,0.8-0.8c17.5-28.2,21.5-53.8,21.5-71.1c0-12.9-2.2-21-2.5-22.2l0-0.1
		c0-2.5-0.6-4.9-1.4-6.9c-0.4-1-0.9-1.9-1.5-2.7c-0.6-0.8-1.3-1.5-2.5-1.9c-1.3-0.4-2.6,0.3-3.1,1.5c-0.4,1.2,0.2,2.5,1.4,3l0,0
		l0.1,0.1c0.4,0.4,1,1.4,1.4,2.6c0.4,1.3,0.7,2.8,0.7,4.2c0,1.4-0.3,2.7-0.8,3.6c-1,1.8-2.2,2.9-3.6,3.7c-1.4,0.8-3.1,1.1-4.9,1.1
		c-2.9,0-6.3-1-9.2-2.8c-2.9-1.7-5.3-4.2-6.6-6.7c-1.1-2.2-1.7-5-1.7-7.9c0-5.2,1.9-10.9,5.6-15.1c3.7-4.3,9-7.2,16.5-7.2
		c0.5,0,1.1,0,1.6,0.1l0,0c7.9,0.5,15.4,4.8,21.1,12.9c5.7,8.1,9.4,19.9,9.4,35C699.6,513.1,698.5,522.1,696.1,532z" style="fill: rgb(255, 52, 0);"></path>
	<path class="st1" d="M344,663.8c0-7.8-2.4-15.7-7.4-22.4c-7.5-10-20-16.5-31.9-16.5c-7.6,0-15.1,2.8-20.4,9.2
		c-3.4,4.1-5.6,8.3-6.5,12.7c-26-4.8-44-14.3-58.3-25.8l-0.5-0.3c0.4-0.2,0.8-0.4,1.1-0.7c2.6-2,4.6-5.3,4.5-9.4
		c0-0.7-0.1-1.4-0.2-2.2c-1.5-10-10.2-16.7-19.1-16.7c-3.2,0-6.4,0.8-9.2,2.7c-5.1,3.2-7.8,8.4-8.3,13.9c-3-2.8-7.5-7.3-12-13.2
		c-5.9-7.6-11.7-17.3-14-27.7c1.1,0.3,2.2,0.5,3.4,0.5c3.9,0,7.9-1.6,11.2-4.5c3.2-2.9,5.5-7.4,5.5-12.8c0-3-0.7-6.3-2.2-9.9
		c-3.7-8.8-11.6-13.4-19.5-13.3c-11,0-22.2,8.5-24.1,23.7c-0.2,1.6-0.3,3.3-0.3,5c0,1.3,0.1,2.7,0.2,4
		c-8.5-19.6-10.7-36.9-10.7-49.5c0-5.7,0.4-10.3,1-13.8c1.1,1.2,2.3,2.3,3.6,3.1c2.2,1.2,4.7,1.7,7.2,1.7c4,0,8.1-1.3,11.7-3.5
		c3.5-2.1,6.6-5.1,8.4-8.6c1.5-3,2.3-6.5,2.3-10.1c0-6.3-2.2-13-6.7-18.3c-4.5-5.2-11.4-8.9-20.1-8.9c-0.6,0-1.3,0-2,0.1v0l0,0h0v0
		c-9.5,0.6-18.4,5.9-24.7,15c-6.3,9.1-10.3,21.9-10.3,37.8c0,8.5,1.1,17.9,3.6,28.1c11.3,46,44.6,94.5,75.1,117.9
		c15.1,11.5,34.8,24.6,55.7,34.8c21,10.2,43.2,17.6,63.6,17.6c12.8,0,24.8-3,35.2-10.1C338.9,686.3,344,675.1,344,663.8z
		 M293.7,698.5c-19.2,0-40.9-7.1-61.5-17.1c-20.6-10-40.1-22.9-54.9-34.2c-29.5-22.4-62.5-70.5-73.4-115.2
		c-2.4-9.8-3.5-18.8-3.5-26.9c0-15.1,3.7-26.9,9.4-35c5.7-8.1,13.2-12.5,21.1-12.9l0,0c0.5,0,1.1-0.1,1.6-0.1c7.4,0,12.8,3,16.5,7.2
		c3.7,4.3,5.6,9.9,5.6,15.1c0,2.9-0.6,5.7-1.7,7.9c-1.3,2.5-3.7,5-6.6,6.7c-2.9,1.7-6.2,2.8-9.2,2.8c-1.8,0-3.5-0.4-4.9-1.1
		c-1.4-0.8-2.6-1.9-3.6-3.7c-0.5-1-0.8-2.2-0.8-3.6c0-1.8,0.4-3.7,1-5.1c0.3-0.7,0.6-1.3,0.9-1.6l0.3-0.3l0,0l0,0
		c1.2-0.5,1.8-1.8,1.4-3c-0.4-1.3-1.8-2-3-1.5l0,0c-1.2,0.4-1.9,1.1-2.5,1.9c-1.7,2.3-2.9,5.8-2.9,9.6l0,0.1
		c-0.3,1.2-2.5,9.3-2.5,22.2c0,17.2,3.9,42.8,21.5,71.1c0.2,0.3,0.5,0.6,0.8,0.8c2.4,4.9,5.3,10,8.9,15.1c10.3,14.9,25.4,30.7,45,47
		c16.7,13.8,35.9,23.2,53.8,29.1c17.9,5.9,34.5,8.4,46,8.5c6.2,0,10.9-0.6,14.1-2.3c6.9-3.6,9.9-9.5,9.8-15c0-3.6-1.2-7.1-3.2-9.8
		c-2-2.7-4.8-4.7-8.2-5.2v0l0,0l0,0v0c-0.7-0.1-1.3-0.2-1.9-0.1c-3.6,0-6.7,1.6-8.8,3.8c-2.1,2.2-3.3,5-3.3,7.8
		c0,2.1,0.8,4.4,2.7,5.8c1.1,0.8,2.6,0.6,3.4-0.4c0.8-1.1,0.6-2.6-0.4-3.4l0,0c-0.5-0.4-0.8-1-0.8-2c0-1.3,0.7-3.1,2-4.5
		c1.3-1.4,3.1-2.3,5.3-2.3l1.2,0.1l0,0c1.8,0.3,3.6,1.5,5,3.3c1.4,1.9,2.3,4.4,2.3,6.9c0,3.8-1.8,7.7-7.3,10.7
		c-1.7,0.9-6,1.7-11.8,1.7c-10.9,0-27-2.4-44.5-8.2c-17.4-5.8-36.2-14.9-52.2-28.3c-19.3-16-34.2-31.6-44.1-46
		c-9.9-14.4-14.9-27.6-14.9-38.7c0-1.5,0.1-3,0.3-4.4c1.7-13.1,10.7-19.4,19.3-19.5c6.1,0,12,3.2,15,10.4c1.3,3,1.8,5.7,1.8,8
		c0,4.1-1.6,7.1-3.9,9.3c-2.3,2.1-5.3,3.2-7.9,3.2c-1.7,0-3.1-0.4-4-1.2c-2.1-1.7-2.9-4-2.9-6.3c0-1.8,0.5-3.6,1.3-4.7
		c0.4-0.6,0.8-1,1.2-1.2l0.9-0.3l0.1,0c1.3,0.2,2.6-0.7,2.8-2c0.2-1.3-0.7-2.6-2-2.8l-1-0.1c-1.3,0-2.6,0.4-3.6,1.1
		c-1.5,1-2.7,2.6-3.4,4.3c-0.8,1.7-1.2,3.7-1.2,5.7c0,2.8,0.9,5.7,2.9,8.2l0,0.1c1.8,13.3,8.8,25.3,15.8,34.3
		c7,9,13.9,15.1,15.7,16.6l0.5,0.3c1.1,4.9,3.9,9.7,8.2,13.9c5.6,5.4,15.1,11.9,28.4,18.7c13.3,6.8,30.2,13.8,50.5,20
		c1.3,0.4,2.6-0.3,3-1.6c0.4-1.3-0.3-2.6-1.6-3c-20-6.1-36.7-13.1-49.7-19.7c-13-6.6-22.3-13-27.3-17.8c-4.9-4.8-7.3-10.4-7.3-15.3
		c0-4.7,2-8.8,6.3-11.5c2.1-1.3,4.3-1.9,6.6-1.9c6.6,0,13.3,5.1,14.3,12.6c0.1,0.5,0.1,1,0.1,1.5c0,2.7-1.1,4.3-2.6,5.6
		c-1.6,1.2-3.8,1.9-5.8,1.9c-1.9,0-3.5-0.7-3.9-1.2c-1.3-1.5-1.7-2.8-1.7-3.7c0-0.7,0.2-1.2,0.5-1.5c0.3-0.3,0.7-0.5,1.4-0.5l0.4,0
		c1.3,0.2,2.6-0.7,2.8-2c0.2-1.3-0.7-2.6-2-2.8v0l-1.2-0.1c-1.9,0-3.6,0.7-4.8,2c-1.2,1.3-1.9,3-1.9,4.9c0,2.3,1,4.6,2.8,6.8
		c1.9,2.1,4.7,2.8,7.5,2.9c1.4,0,2.9-0.2,4.3-0.6c-0.2,0.9,0,1.9,0.8,2.5c14.9,12,33.9,22.1,61,26.9c0.1,2.7,0.7,5.5,1.8,8.3
		c0.5,1.2,1.9,1.9,3.1,1.4c1.2-0.5,1.9-1.9,1.4-3.1c-1-2.7-1.5-5.1-1.5-7.4c0-4.5,1.8-8.8,5.8-13.7c4.2-5.1,10.1-7.4,16.6-7.4
		c10.2,0,21.6,5.8,28,14.5c4.3,5.8,6.4,12.7,6.4,19.5c0,9.9-4.5,19.6-13.1,25.5C316.7,695.8,305.7,698.5,293.7,698.5z" style="fill: rgb(255, 52, 0);"></path>
	<path class="st1" d="M478.2,714.4c-0.6-0.4-1.2-0.5-1.7-0.5c-24.5-6.7-43.1-27.4-55.5-46.7c-6.2-9.6-10.8-18.8-13.9-25.6
		c-1.5-3.4-2.7-6.2-3.5-8.1c-0.4-1-0.7-1.7-0.9-2.2c-0.2-0.5-0.3-0.8-0.3-0.8l-0.1-0.1l-0.2-0.3l-0.3-0.4l-0.3-0.2l-0.5-0.3
		l-0.2-0.1l-0.1,0l-0.6-0.1l-0.4,0h-0.1l-0.4,0.1l-0.3,0.1c-0.2,0.1-0.4,0.2-0.5,0.4l-0.2,0.1c-0.2,0.2-0.4,0.5-0.5,0.8l0,0l0,0
		c0,0-0.1,0.2-0.3,0.8c-1.4,3.8-8.3,21.4-20.6,39.6c-12.3,18.2-30.1,36.7-53.1,43.1c-0.5,0-1.1,0.1-1.7,0.5
		c-0.4,0.3-0.8,0.7-1.1,1.1c-0.3,0.5-0.4,1-0.4,1.5c0.1,1.5,0.7,2.2,1.3,3.1c1.1,1.4,2.8,2.9,5,4.5c6.6,4.7,17.9,10.2,29.3,10.2
		c6,0,12.1-1.7,17.2-5.8c2.1,13.2,7.8,22.5,13.3,28.5c6.2,6.8,12,9.6,12.2,9.6c0.3,0.1,0.5,0.2,0.8,0.2l0.1,0c0.4,0,0.7-0.1,1.1-0.2
		l0.1,0c0.2-0.1,6-2.9,12.2-9.6c5.5-6,11.2-15.3,13.3-28.5c5.1,4.2,11.2,5.8,17.2,5.8c8.7,0,17.3-3.2,23.8-6.8c3.3-1.8,6-3.7,8-5.4
		c1-0.9,1.8-1.7,2.5-2.5c0.6-0.9,1.2-1.6,1.3-3.1C479.6,716.1,479,714.9,478.2,714.4z M397.8,760.6c-2.1-1.5-4.9-3.7-7.7-7
		c-5.3-6.1-10.8-15.4-12.1-29.3c7.5-13,8.8-25.5,8.8-25.7c0.1-1.3-0.8-2.5-2.2-2.6c-1.3-0.1-2.5,0.8-2.6,2.2l0,0l-0.1,0.5
		c-0.3,2.4-2.1,13.2-8.4,23.8c-4.7,5.5-10.6,7.5-17,7.5c-7.5,0-15.5-2.9-21.5-6.2c-3-1.6-5.5-3.4-7.2-4.9c-0.4-0.3-0.7-0.6-1-0.9
		c25.6-7.7,44.3-28.9,56.7-48.2c6.4-9.9,11.2-19.4,14.3-26.3V760.6z M470.8,720.4c-5.8,4.3-16.8,9.6-26.8,9.6c-6.4,0-12.3-2-17-7.5
		c-3.6-6.1-5.7-12.1-7-16.7c-0.6-2.3-1-4.2-1.2-5.6c-0.1-0.7-0.2-1.2-0.2-1.5l-0.1-0.5c-0.1-1.3-1.3-2.3-2.6-2.2
		c-1.3,0.1-2.3,1.3-2.2,2.7l0,0c0,0.2,1.3,12.7,8.8,25.7c-1.4,14.3-7.1,23.8-12.6,29.9c-2.7,2.9-5.3,5-7.2,6.4V643.4
		c3.2,7,7.9,16.4,14.3,26.3c12.5,19.3,31.2,40.5,56.7,48.2C472.9,718.7,472,719.5,470.8,720.4z" style="fill: rgb(255, 52, 0);"></path>
	<path class="st1" d="M760.2,361.6c0.8,0,1.7-0.3,2.3-0.9c0.6-0.6,0.9-1.4,0.9-2.3c0-0.8-0.3-1.7-0.9-2.3c-0.6-0.6-1.4-0.9-2.3-0.9
		c-0.8,0-1.7,0.3-2.3,0.9c-0.6,0.6-0.9,1.4-0.9,2.3c0,0.8,0.3,1.7,0.9,2.3C758.5,361.3,759.3,361.6,760.2,361.6" style="fill: rgb(255, 52, 0);"></path>
	<path class="st1" d="M739.8,300.8L739.8,300.8c-1.4-1.1-3.4-0.8-4.5,0.7c-1.1,1.4-0.8,3.4,0.7,4.5c1.4,1.1,3.4,0.8,4.5-0.7
		C741.5,303.9,741.2,301.9,739.8,300.8z M750.7,313L750.7,313c-1-1.5-3-1.9-4.4-0.9c-1.5,1-1.9,3-0.9,4.4l0,0c1,1.5,3,1.9,4.4,0.9
		C751.3,316.5,751.7,314.5,750.7,313L750.7,313z M758.1,327.2L758.1,327.2c-0.7-1.6-2.5-2.4-4.2-1.8c-1.6,0.7-2.4,2.5-1.8,4.2h0
		c0.7,1.6,2.5,2.4,4.2,1.8C758,330.7,758.8,328.8,758.1,327.2L758.1,327.2z M762.6,342.6L762.6,342.6c-0.3-1.7-2-2.9-3.7-2.6
		c-1.7,0.3-2.9,2-2.6,3.7h0c0.3,1.7,2,2.9,3.7,2.6C761.8,346,762.9,344.3,762.6,342.6L762.6,342.6z" style="fill: rgb(255, 52, 0);"></path>
	<path class="st1" d="M723.7,301.4c0.8,0,1.7-0.3,2.3-0.9c0.6-0.6,0.9-1.4,0.9-2.3c0-0.8-0.3-1.7-0.9-2.3c-0.6-0.6-1.4-0.9-2.3-0.9
		c-0.8,0-1.7,0.3-2.3,0.9c-0.6,0.6-0.9,1.4-0.9,2.3c0,0.8,0.3,1.7,0.9,2.3C722,301.1,722.8,301.4,723.7,301.4" style="fill: rgb(255, 52, 0);"></path>
	<path class="st1" d="M516.3,68.4L516.3,68.4c-1.8-0.2-3.3,1.1-3.5,2.9c-0.2,1.8,1.1,3.3,2.9,3.5l0,0c1.8,0.2,3.3-1.1,3.5-2.9
		C519.4,70.1,518.1,68.6,516.3,68.4L516.3,68.4z M534,71.2L534,71.2c-1.7-0.4-3.4,0.7-3.8,2.4c-0.4,1.7,0.7,3.4,2.4,3.8h0
		c1.7,0.4,3.4-0.7,3.8-2.4C536.8,73.3,535.7,71.6,534,71.2L534,71.2z M551.2,76L551.2,76c-1.7-0.6-3.5,0.3-4.1,2
		c-0.6,1.7,0.3,3.5,2,4.1l0,0c1.7,0.6,3.5-0.3,4.1-2C553.8,78.4,552.9,76.6,551.2,76L551.2,76z M567.8,82.3L567.8,82.3
		c-1.6-0.7-3.5,0.1-4.2,1.7c-0.7,1.6,0.1,3.5,1.7,4.2v0c1.6,0.7,3.5-0.1,4.2-1.7C570.2,84.9,569.4,83,567.8,82.3L567.8,82.3z
		 M583.9,89.8L583.9,89.8c-1.6-0.8-3.5-0.2-4.3,1.4c-0.8,1.6-0.2,3.5,1.4,4.3v0c1.6,0.8,3.5,0.2,4.3-1.4
		C586.1,92.5,585.5,90.6,583.9,89.8L583.9,89.8z M599.4,98.2L599.4,98.2c-1.5-0.9-3.5-0.4-4.4,1.2c-0.9,1.5-0.4,3.5,1.2,4.4l0,0
		c1.5,0.9,3.5,0.4,4.4-1.2C601.5,101.1,601,99.1,599.4,98.2L599.4,98.2z M614.5,107.4L614.5,107.4c-1.5-1-3.5-0.5-4.4,1
		s-0.5,3.5,1,4.4h0c1.5,1,3.5,0.5,4.4-1C616.5,110.4,616,108.4,614.5,107.4L614.5,107.4z M629.2,117.3L629.2,117.3
		c-1.4-1-3.4-0.7-4.5,0.8c-1,1.4-0.7,3.4,0.8,4.5h0c1.4,1,3.4,0.7,4.5-0.8C630.9,120.4,630.6,118.4,629.2,117.3L629.2,117.3z
		 M643.3,128L643.3,128c-1.4-1.1-3.4-0.9-4.5,0.5c-1.1,1.4-0.9,3.4,0.5,4.5c1.4,1.1,3.4,0.9,4.5-0.5
		C644.9,131.1,644.7,129.1,643.3,128z M656.5,140L656.5,140c-1.3-1.3-3.3-1.3-4.5,0c-1.3,1.3-1.3,3.3,0,4.5c1.3,1.3,3.3,1.3,4.5,0
		C657.8,143.3,657.8,141.3,656.5,140z M668.6,153.1L668.6,153.1c-1.2-1.3-3.2-1.5-4.5-0.4c-1.3,1.1-1.5,3.2-0.4,4.5h0
		c1.1,1.3,3.2,1.5,4.5,0.4C669.6,156.4,669.7,154.4,668.6,153.1L668.6,153.1z M679.6,167L679.6,167c-1.1-1.4-3.1-1.7-4.5-0.7
		c-1.4,1.1-1.7,3.1-0.7,4.5l0,0c1.1,1.4,3.1,1.7,4.5,0.7C680.4,170.4,680.7,168.4,679.6,167L679.6,167z M689.7,181.5L689.7,181.5
		c-1-1.5-3-1.9-4.4-0.9c-1.5,1-1.9,3-0.9,4.4h0c1,1.5,2.9,1.9,4.4,0.9C690.3,185,690.7,183,689.7,181.5L689.7,181.5L689.7,181.5z
		 M698.9,196.7L698.9,196.7c-0.9-1.5-2.8-2.1-4.4-1.2c-1.5,0.9-2.1,2.8-1.2,4.4h0c0.9,1.5,2.8,2.1,4.4,1.2
		C699.2,200.2,699.8,198.2,698.9,196.7L698.9,196.7z M707.1,212.4L707.1,212.4c-0.8-1.6-2.7-2.3-4.3-1.5c-1.6,0.8-2.3,2.7-1.5,4.3h0
		c0.8,1.6,2.7,2.3,4.3,1.5C707.2,215.9,707.9,214,707.1,212.4L707.1,212.4z M714.3,228.7L714.3,228.7c-0.7-1.6-2.5-2.4-4.2-1.8
		c-1.6,0.7-2.4,2.5-1.8,4.2h0c0.7,1.6,2.5,2.4,4.2,1.8C714.1,232.2,714.9,230.3,714.3,228.7L714.3,228.7z M720.2,245.4L720.2,245.4
		c-0.5-1.7-2.3-2.6-4-2.1c-1.7,0.5-2.6,2.3-2.1,4c0.5,1.7,2.3,2.6,4,2.1C719.8,248.9,720.7,247.1,720.2,245.4z M724.6,262.7
		L724.6,262.7c-0.3-1.7-2-2.9-3.8-2.5c-1.7,0.3-2.9,2-2.5,3.8h0c0.3,1.7,2,2.9,3.8,2.5C723.8,266.1,724.9,264.4,724.6,262.7
		L724.6,262.7L724.6,262.7z M727,280.5L727,280.5c-0.1-1.8-1.7-3.1-3.4-3c-1.8,0.1-3.1,1.7-3,3.4h0c0.1,1.8,1.7,3.1,3.4,3
		C725.8,283.8,727.1,282.2,727,280.5L727,280.5z" style="fill: rgb(255, 52, 0);"></path>
	<path class="st1" d="M498.5,74.7c0.8,0,1.7-0.3,2.3-0.9c0.6-0.6,0.9-1.4,0.9-2.3s-0.3-1.7-0.9-2.3c-0.6-0.6-1.4-0.9-2.3-0.9
		c-0.8,0-1.7,0.3-2.3,0.9c-0.6,0.6-0.9,1.4-0.9,2.3s0.3,1.7,0.9,2.3C496.9,74.3,497.7,74.7,498.5,74.7" style="fill: rgb(255, 52, 0);"></path>
	<path class="st1" d="M457.6,38.1L457.6,38.1c-1.7-0.4-3.4,0.7-3.8,2.4c-0.4,1.7,0.7,3.4,2.4,3.8c1.7,0.4,3.4-0.7,3.8-2.4
		C460.4,40.2,459.4,38.5,457.6,38.1z M475.2,44.3L475.2,44.3c-1.6-0.8-3.5-0.1-4.3,1.5c-0.8,1.6-0.1,3.5,1.5,4.3
		c1.6,0.8,3.5,0.1,4.3-1.5C477.4,47,476.8,45.1,475.2,44.3z M490.9,54.4L490.9,54.4c-1.3-1.2-3.4-1-4.5,0.3c-1.2,1.3-1,3.4,0.3,4.5
		h0c1.3,1.2,3.4,1,4.5-0.3C492.4,57.6,492.2,55.6,490.9,54.4C490.9,54.4,490.9,54.4,490.9,54.4z" style="fill: rgb(255, 52, 0);"></path>
	<path class="st1" d="M439.2,43.2c0.8,0,1.7-0.3,2.3-0.9c0.6-0.6,0.9-1.4,0.9-2.3s-0.3-1.7-0.9-2.3c-0.6-0.6-1.4-0.9-2.3-0.9
		c-0.8,0-1.7,0.3-2.3,0.9c-0.6,0.6-0.9,1.4-0.9,2.3s0.3,1.7,0.9,2.3C437.5,42.8,438.3,43.2,439.2,43.2" style="fill: rgb(255, 52, 0);"></path>
	<path class="st1" d="M368.5,23.1L368.5,23.1c-1.2,1.3-1,3.4,0.4,4.5c1.3,1.1,3.4,1,4.5-0.4h0c1.1-1.3,1-3.4-0.4-4.5
		C371.6,21.6,369.6,21.8,368.5,23.1L368.5,23.1z M382.1,10.7L382.1,10.7c-1.5,1-1.8,3-0.8,4.5c1,1.5,3,1.8,4.5,0.8h0
		c1.5-1,1.8-3,0.8-4.5C385.6,10,383.6,9.7,382.1,10.7C382.1,10.7,382.1,10.7,382.1,10.7z M400.2,4L400.2,4c-1.8,0-3.2,1.4-3.2,3.2
		c0,1.8,1.4,3.2,3.2,3.2h0c1.8,0,3.2-1.4,3.2-3.2C403.4,5.4,402,4,400.2,4C400.2,4,400.2,4,400.2,4z M418.3,10.7L418.3,10.7
		c-1.5-1-3.5-0.7-4.5,0.8c-1,1.5-0.7,3.5,0.8,4.5h0c1.5,1,3.5,0.7,4.5-0.8C420.1,13.7,419.7,11.7,418.3,10.7L418.3,10.7z
		 M431.9,23.1L431.9,23.1c-1.1-1.3-3.2-1.5-4.5-0.4c-1.3,1.1-1.5,3.2-0.4,4.5h0c1.1,1.3,3.2,1.5,4.5,0.4
		C432.9,26.5,433.1,24.5,431.9,23.1L431.9,23.1z" style="fill: rgb(255, 52, 0);"></path>
	<path class="st1" d="M361.2,43.2c0.8,0,1.7-0.3,2.3-0.9c0.6-0.6,0.9-1.4,0.9-2.3s-0.3-1.7-0.9-2.3c-0.6-0.6-1.4-0.9-2.3-0.9
		c-0.8,0-1.7,0.3-2.3,0.9c-0.6,0.6-0.9,1.4-0.9,2.3s0.3,1.7,0.9,2.3C359.5,42.8,360.4,43.2,361.2,43.2" style="fill: rgb(255, 52, 0);"></path>
	<path class="st1" d="M309.5,54.4L309.5,54.4c-1.3,1.2-1.5,3.2-0.3,4.5c1.2,1.3,3.2,1.5,4.5,0.3h0c1.3-1.2,1.5-3.2,0.3-4.5
		C312.8,53.4,310.8,53.2,309.5,54.4L309.5,54.4L309.5,54.4z M325.2,44.3L325.2,44.3c-1.6,0.8-2.3,2.7-1.5,4.3
		c0.8,1.6,2.7,2.3,4.3,1.5c1.6-0.8,2.3-2.7,1.5-4.3C328.7,44.2,326.8,43.5,325.2,44.3z M342.7,38.1L342.7,38.1
		c-1.7,0.4-2.8,2.1-2.4,3.8c0.4,1.7,2.1,2.8,3.8,2.4l0,0c1.7-0.4,2.8-2.1,2.4-3.8C346.2,38.8,344.4,37.7,342.7,38.1L342.7,38.1z" style="fill: rgb(255, 52, 0);"></path>
	<path class="st1" d="M301.8,74.7c0.8,0,1.7-0.3,2.3-0.9c0.6-0.6,0.9-1.4,0.9-2.3s-0.3-1.7-0.9-2.3c-0.6-0.6-1.4-0.9-2.3-0.9
		c-0.8,0-1.7,0.3-2.3,0.9c-0.6,0.6-0.9,1.4-0.9,2.3s0.3,1.7,0.9,2.3C300.1,74.4,301,74.7,301.8,74.7" style="fill: rgb(255, 52, 0);"></path>
	<path class="st1" d="M73,280.4L73,280.4c-0.1,1.8,1.2,3.3,3,3.4c1.8,0.1,3.3-1.2,3.4-3h0c0.1-1.8-1.2-3.3-3-3.4
		C74.7,277.3,73.2,278.6,73,280.4L73,280.4z M75.4,262.6L75.4,262.6c-0.3,1.7,0.8,3.4,2.5,3.8c1.7,0.3,3.4-0.8,3.8-2.5h0
		c0.3-1.7-0.8-3.4-2.5-3.8C77.5,259.7,75.8,260.9,75.4,262.6L75.4,262.6L75.4,262.6z M79.9,245.3L79.9,245.3c-0.5,1.7,0.4,3.5,2.1,4
		c1.7,0.5,3.5-0.4,4-2.1v0c0.5-1.7-0.4-3.5-2.1-4C82.2,242.7,80.4,243.6,79.9,245.3L79.9,245.3z M85.8,228.5L85.8,228.5
		c-0.7,1.6,0.1,3.5,1.8,4.2c1.6,0.7,3.5-0.1,4.2-1.8l0,0c0.7-1.6-0.1-3.5-1.8-4.2C88.3,226.1,86.5,226.9,85.8,228.5L85.8,228.5z
		 M93,212.3L93,212.3c-0.8,1.6-0.1,3.5,1.5,4.3c1.6,0.8,3.5,0.1,4.3-1.5h0c0.8-1.6,0.1-3.5-1.5-4.3C95.7,210,93.7,210.7,93,212.3
		L93,212.3z M101.2,196.6L101.2,196.6c-0.9,1.5-0.3,3.5,1.2,4.4c1.5,0.9,3.5,0.3,4.4-1.2h0c0.9-1.5,0.3-3.5-1.2-4.4
		C104,194.5,102.1,195,101.2,196.6L101.2,196.6z M110.4,181.4L110.4,181.4c-1,1.5-0.5,3.5,0.9,4.4c1.5,1,3.5,0.5,4.4-0.9h0
		c1-1.5,0.5-3.5-0.9-4.4C113.3,179.5,111.3,179.9,110.4,181.4L110.4,181.4L110.4,181.4z M120.5,166.8L120.5,166.8
		c-1.1,1.4-0.8,3.4,0.7,4.5c1.4,1.1,3.4,0.8,4.5-0.7s0.8-3.4-0.7-4.5C123.6,165.1,121.5,165.4,120.5,166.8z M131.5,152.9
		L131.5,152.9c-1.2,1.3-1,3.4,0.4,4.5c1.3,1.2,3.4,1,4.5-0.4h0c1.2-1.3,1-3.4-0.4-4.5C134.7,151.4,132.7,151.6,131.5,152.9
		L131.5,152.9L131.5,152.9z M143.6,139.9L143.6,139.9c-1.3,1.3-1.3,3.3,0,4.5c1.3,1.3,3.3,1.3,4.5,0h0c1.3-1.3,1.3-3.3,0-4.5
		C146.9,138.6,144.9,138.6,143.6,139.9L143.6,139.9z M156.8,127.9L156.8,127.9c-1.4,1.1-1.6,3.1-0.5,4.5s3.1,1.6,4.5,0.5
		c1.4-1.1,1.6-3.1,0.5-4.5C160.2,127,158.2,126.7,156.8,127.9z M171,117.2L171,117.2c-1.4,1-1.8,3-0.8,4.5c1,1.4,3,1.8,4.5,0.8h0
		c1.4-1,1.8-3,0.8-4.5C174.5,116.5,172.5,116.2,171,117.2L171,117.2z M185.7,107.3L185.7,107.3c-1.5,1-1.9,2.9-1,4.4
		c1,1.5,2.9,1.9,4.4,1l0,0c1.5-1,1.9-2.9,1-4.4C189.2,106.8,187.2,106.4,185.7,107.3L185.7,107.3z M200.8,98.1L200.8,98.1
		c-1.5,0.9-2.1,2.8-1.2,4.4s2.8,2.1,4.4,1.2c1.5-0.9,2.1-2.8,1.2-4.4S202.3,97.2,200.8,98.1z M216.4,89.7L216.4,89.7
		c-1.6,0.8-2.2,2.7-1.4,4.3c0.8,1.6,2.7,2.2,4.3,1.4h0c1.6-0.8,2.2-2.7,1.4-4.3C219.9,89.5,218,88.9,216.4,89.7L216.4,89.7
		L216.4,89.7z M232.5,82.2L232.5,82.2c-1.6,0.7-2.4,2.6-1.7,4.2c0.7,1.6,2.6,2.4,4.2,1.7l0,0c1.6-0.7,2.4-2.6,1.7-4.2
		C236,82.3,234.1,81.5,232.5,82.2L232.5,82.2z M249.1,75.9L249.1,75.9c-1.7,0.6-2.6,2.4-2,4.1c0.6,1.7,2.4,2.6,4.1,2
		c1.7-0.6,2.6-2.4,2-4.1C252.6,76.3,250.8,75.4,249.1,75.9z M266.3,71.1L266.3,71.1c-1.7,0.4-2.8,2.1-2.4,3.8
		c0.4,1.7,2.1,2.8,3.8,2.4h0c1.7-0.4,2.8-2.1,2.4-3.8C269.7,71.9,268,70.8,266.3,71.1L266.3,71.1z M284,68.4L284,68.4
		c-1.8,0.2-3.1,1.7-2.9,3.5c0.2,1.8,1.7,3.1,3.5,2.9h0c1.8-0.2,3.1-1.7,2.9-3.5C287.4,69.5,285.8,68.2,284,68.4L284,68.4z" style="fill: rgb(255, 52, 0);"></path>
	<path class="st1" d="M76.3,301.3c0.8,0,1.7-0.3,2.3-0.9c0.6-0.6,0.9-1.4,0.9-2.3c0-0.8-0.3-1.7-0.9-2.3c-0.6-0.6-1.4-0.9-2.3-0.9
		c-0.8,0-1.7,0.3-2.3,0.9c-0.6,0.6-0.9,1.4-0.9,2.3c0,0.8,0.3,1.7,0.9,2.3C74.7,300.9,75.5,301.3,76.3,301.3" style="fill: rgb(255, 52, 0);"></path>
	<path class="st1" d="M38.6,338.4L38.6,338.4c-0.4,1.7,0.6,3.5,2.4,3.9c1.7,0.4,3.5-0.6,3.9-2.4l0,0c0.4-1.7-0.6-3.5-2.4-3.9
		C40.8,335.6,39,336.6,38.6,338.4L38.6,338.4z M45.7,319.9L45.7,319.9c-0.8,1.6-0.2,3.5,1.3,4.3c1.6,0.8,3.5,0.2,4.3-1.3h0
		c0.8-1.6,0.2-3.5-1.3-4.3C48.4,317.8,46.5,318.4,45.7,319.9L45.7,319.9z M57.3,303.7L57.3,303.7c-1.3,1.2-1.3,3.3-0.1,4.5
		c1.2,1.3,3.3,1.3,4.5,0.1h0c1.3-1.2,1.3-3.3,0.1-4.5C60.6,302.5,58.5,302.5,57.3,303.7L57.3,303.7z" style="fill: rgb(255, 52, 0);"></path>
	<path class="st1" d="M40.2,361.2c0.8,0,1.7-0.3,2.3-0.9c0.6-0.6,0.9-1.4,0.9-2.3c0-0.8-0.3-1.7-0.9-2.3c-0.6-0.6-1.4-0.9-2.3-0.9
		s-1.7,0.3-2.3,0.9c-0.6,0.6-0.9,1.4-0.9,2.3c0,0.8,0.3,1.7,0.9,2.3C38.5,360.9,39.3,361.2,40.2,361.2" style="fill: rgb(255, 52, 0);"></path>
	<path class="st1" d="M23,428.6L23,428.6c1.3,1.2,3.4,1,4.5-0.3c1.2-1.3,1-3.4-0.3-4.5l0,0c-1.3-1.2-3.4-1-4.5,0.3
		C21.5,425.4,21.7,427.5,23,428.6L23,428.6z M10.7,414.9L10.7,414.9c1,1.5,3,1.8,4.5,0.8c1.5-1,1.8-3,0.8-4.5h0
		c-1-1.5-3-1.8-4.5-0.8C10,411.5,9.7,413.5,10.7,414.9L10.7,414.9z M4,396.8L4,396.8c0,1.8,1.4,3.2,3.2,3.2c1.8,0,3.2-1.4,3.2-3.2
		l0,0c0-1.8-1.4-3.2-3.2-3.2C5.4,393.6,4,395.1,4,396.8L4,396.8z M10.8,378.7L10.8,378.7c-1,1.5-0.7,3.5,0.8,4.5
		c1.5,1,3.5,0.7,4.5-0.8h0c1-1.5,0.7-3.5-0.8-4.5C13.8,376.9,11.8,377.3,10.8,378.7L10.8,378.7L10.8,378.7z M23.3,365.2L23.3,365.2
		c-1.4,1.1-1.5,3.2-0.4,4.5c1.1,1.4,3.2,1.5,4.5,0.4h0c1.4-1.1,1.5-3.2,0.4-4.5C26.7,364.2,24.7,364,23.3,365.2L23.3,365.2z" style="fill: rgb(255, 52, 0);"></path>
	<path class="st1" d="M39.9,439.1c0.8,0,1.7-0.3,2.3-0.9c0.6-0.6,0.9-1.4,0.9-2.3c0-0.8-0.3-1.7-0.9-2.3c-0.6-0.6-1.4-0.9-2.3-0.9
		c-0.8,0-1.7,0.3-2.3,0.9c-0.6,0.6-0.9,1.4-0.9,2.3c0,0.8,0.3,1.7,0.9,2.3C38.2,438.8,39,439.1,39.9,439.1" style="fill: rgb(255, 52, 0);"></path>
	<path class="st1" d="M60.2,493.5L60.2,493.5c1.4,1.1,3.4,0.8,4.5-0.6c1.1-1.4,0.8-3.4-0.6-4.5c-1.4-1.1-3.4-0.8-4.5,0.6
		C58.5,490.5,58.8,492.5,60.2,493.5z M49.3,481.3L49.3,481.3c1,1.5,3,1.9,4.4,0.9c1.5-1,1.9-3,0.9-4.4c-1-1.5-3-1.9-4.4-0.9
		C48.7,477.8,48.3,479.8,49.3,481.3z M41.9,467.2L41.9,467.2c0.7,1.6,2.5,2.4,4.2,1.8c1.6-0.7,2.4-2.5,1.8-4.2h0
		c-0.7-1.6-2.5-2.4-4.2-1.8C42,463.7,41.2,465.5,41.9,467.2L41.9,467.2z M37.4,451.8L37.4,451.8c0.3,1.7,2,2.9,3.7,2.6
		c1.7-0.3,2.9-2,2.6-3.7h0c-0.3-1.7-2-2.9-3.7-2.6C38.2,448.4,37.1,450.1,37.4,451.8L37.4,451.8z" style="fill: rgb(255, 52, 0);"></path>
	<path class="st1" d="M76.3,499.4c0.8,0,1.7-0.3,2.3-0.9c0.6-0.6,0.9-1.4,0.9-2.3c0-0.8-0.3-1.7-0.9-2.3c-0.6-0.6-1.4-0.9-2.3-0.9
		c-0.8,0-1.7,0.3-2.3,0.9c-0.6,0.6-0.9,1.4-0.9,2.3c0,0.8,0.3,1.7,0.9,2.3C74.6,499,75.5,499.4,76.3,499.4" style="fill: rgb(255, 52, 0);"></path>
	<path class="st1" d="M284.1,725.8L284.1,725.8c1.8,0.2,3.3-1.2,3.5-2.9c0.2-1.8-1.2-3.3-2.9-3.5h0c-1.8-0.2-3.3,1.2-3.5,2.9
		C281,724.1,282.3,725.7,284.1,725.8L284.1,725.8z M266.3,723.1L266.3,723.1c1.7,0.4,3.4-0.7,3.8-2.4c0.4-1.7-0.7-3.4-2.4-3.8
		c-1.7-0.4-3.4,0.7-3.8,2.4C263.5,721,264.6,722.7,266.3,723.1z M249.1,718.3L249.1,718.3c1.7,0.6,3.5-0.4,4.1-2
		c0.6-1.7-0.4-3.5-2-4.1h0c-1.7-0.6-3.5,0.4-4.1,2C246.5,715.9,247.5,717.7,249.1,718.3L249.1,718.3z M232.5,712L232.5,712
		c1.6,0.7,3.5-0.1,4.2-1.7c0.7-1.6-0.1-3.5-1.7-4.2v0c-1.6-0.7-3.5,0.1-4.2,1.7C230.1,709.4,230.9,711.3,232.5,712L232.5,712z
		 M216.4,704.5L216.4,704.5c1.6,0.8,3.5,0.2,4.3-1.4s0.2-3.5-1.4-4.3c-1.6-0.8-3.5-0.2-4.3,1.4C214.2,701.8,214.8,703.7,216.4,704.5
		z M200.8,696.1L200.8,696.1c1.5,0.9,3.5,0.4,4.4-1.2c0.9-1.5,0.4-3.5-1.2-4.4c-1.5-0.9-3.5-0.4-4.4,1.2
		C198.8,693.3,199.3,695.2,200.8,696.1z M185.7,686.9L185.7,686.9c1.5,1,3.5,0.5,4.4-1c1-1.5,0.5-3.5-1-4.4h0c-1.5-1-3.5-0.5-4.4,1
		C183.8,684,184.2,686,185.7,686.9L185.7,686.9z M171.1,677L171.1,677c1.4,1,3.4,0.7,4.5-0.8c1-1.4,0.7-3.4-0.8-4.5
		c-1.4-1-3.4-0.7-4.5,0.8C169.3,674,169.6,676,171.1,677z M156.9,666.4L156.9,666.4c1.4,1.1,3.4,0.9,4.5-0.5s0.9-3.4-0.5-4.5l0,0
		c-1.4-1.1-3.4-0.9-4.5,0.5C155.3,663.2,155.5,665.2,156.9,666.4L156.9,666.4L156.9,666.4z M143.6,654.4L143.6,654.4
		c1.3,1.3,3.3,1.2,4.5,0c1.3-1.3,1.2-3.3,0-4.5l0,0c-1.3-1.3-3.3-1.2-4.5,0C142.4,651.1,142.4,653.1,143.6,654.4L143.6,654.4z
		 M131.6,641.3L131.6,641.3c1.2,1.3,3.2,1.5,4.5,0.4c1.3-1.2,1.5-3.2,0.4-4.5c-1.2-1.3-3.2-1.5-4.5-0.4
		C130.6,637.9,130.4,640,131.6,641.3z M120.5,627.4L120.5,627.4c1.1,1.4,3.1,1.7,4.5,0.7c1.4-1.1,1.7-3.1,0.7-4.5
		c-1.1-1.4-3.1-1.7-4.5-0.7C119.8,624,119.5,626,120.5,627.4z M110.4,612.9L110.4,612.9c1,1.5,3,1.9,4.4,0.9c1.5-1,1.9-3,0.9-4.4h0
		c-1-1.5-3-1.9-4.4-0.9C109.9,609.4,109.4,611.4,110.4,612.9L110.4,612.9z M101.2,597.7L101.2,597.7c0.9,1.5,2.8,2.1,4.4,1.2
		c1.5-0.9,2.1-2.8,1.2-4.4h0c-0.9-1.5-2.8-2.1-4.4-1.2C100.9,594.2,100.3,596.1,101.2,597.7L101.2,597.7z M93,582L93,582
		c0.8,1.6,2.7,2.3,4.3,1.5c1.6-0.8,2.3-2.7,1.5-4.3v0c-0.8-1.6-2.7-2.3-4.3-1.5C92.9,578.5,92.2,580.4,93,582L93,582z M85.8,565.7
		L85.8,565.7c0.7,1.6,2.5,2.4,4.2,1.8c1.6-0.7,2.4-2.5,1.8-4.2c-0.7-1.6-2.5-2.4-4.2-1.8C86,562.2,85.2,564.1,85.8,565.7z M79.9,549
		L79.9,549c0.5,1.7,2.3,2.6,4,2.1c1.7-0.5,2.6-2.3,2.1-4h0c-0.5-1.7-2.3-2.6-4-2.1C80.3,545.5,79.3,547.3,79.9,549L79.9,549
		L79.9,549z M75.5,531.7L75.5,531.7c0.3,1.7,2,2.9,3.8,2.5c1.7-0.3,2.9-2,2.5-3.8l0,0c-0.3-1.7-2-2.9-3.8-2.5
		C76.2,528.2,75.1,529.9,75.5,531.7L75.5,531.7z M73,513.9L73,513.9c0.1,1.8,1.7,3.1,3.4,3c1.8-0.1,3.1-1.7,3-3.4h0
		c-0.1-1.8-1.7-3.1-3.4-3C74.2,510.6,72.9,512.1,73,513.9L73,513.9z" style="fill: rgb(255, 52, 0);"></path>
	<path class="st1" d="M301.8,725.9c0.8,0,1.7-0.3,2.3-0.9c0.6-0.6,0.9-1.4,0.9-2.3c0-0.8-0.3-1.7-0.9-2.3c-0.6-0.6-1.4-0.9-2.3-0.9
		c-0.8,0-1.7,0.3-2.3,0.9c-0.6,0.6-0.9,1.4-0.9,2.3c0,0.8,0.3,1.7,0.9,2.3C300.2,725.6,301,725.9,301.8,725.9" style="fill: rgb(255, 52, 0);"></path>
	<path class="st1" d="M342.7,756.1L342.7,756.1c1.7,0.4,3.4-0.7,3.8-2.4c0.4-1.7-0.7-3.4-2.4-3.8h0c-1.7-0.4-3.4,0.7-3.8,2.4
		C339.9,754,341,755.7,342.7,756.1L342.7,756.1L342.7,756.1z M325.2,749.9L325.2,749.9c1.6,0.8,3.5,0.1,4.3-1.5
		c0.8-1.6,0.1-3.5-1.5-4.3h0c-1.6-0.8-3.5-0.1-4.3,1.5C322.9,747.2,323.6,749.1,325.2,749.9L325.2,749.9L325.2,749.9z M309.5,739.8
		L309.5,739.8c1.3,1.2,3.4,1,4.5-0.3c1.2-1.3,1-3.4-0.3-4.5h0c-1.3-1.2-3.4-1-4.5,0.3C308,736.6,308.1,738.6,309.5,739.8
		L309.5,739.8z" style="fill: rgb(255, 52, 0);"></path>
	<path class="st1" d="M361.2,757.5c0.8,0,1.7-0.3,2.3-0.9c0.6-0.6,0.9-1.4,0.9-2.3c0-0.8-0.3-1.7-0.9-2.3c-0.6-0.6-1.4-0.9-2.3-0.9
		c-0.8,0-1.7,0.3-2.3,0.9c-0.6,0.6-0.9,1.4-0.9,2.3c0,0.8,0.3,1.7,0.9,2.3S360.4,757.5,361.2,757.5" style="fill: rgb(255, 52, 0);"></path>
	<path class="st1" d="M431.9,771.1L431.9,771.1c1.1-1.3,1-3.4-0.4-4.5c-1.3-1.1-3.4-1-4.5,0.4h0c-1.1,1.3-1,3.4,0.4,4.5
		C428.7,772.6,430.8,772.4,431.9,771.1L431.9,771.1z M418.3,783.5L418.3,783.5c1.5-1,1.8-3,0.8-4.5c-1-1.5-3-1.8-4.5-0.8
		c-1.5,1-1.8,3-0.8,4.5C414.8,784.2,416.8,784.5,418.3,783.5z M400.2,790.2L400.2,790.2c1.8,0,3.2-1.4,3.2-3.2
		c0-1.8-1.4-3.2-3.2-3.2h0c-1.8,0-3.2,1.4-3.2,3.2C397,788.8,398.4,790.2,400.2,790.2L400.2,790.2z M382.1,783.5L382.1,783.5
		c1.5,1,3.5,0.7,4.5-0.8c1-1.5,0.7-3.5-0.8-4.5c-1.5-1-3.5-0.7-4.5,0.8C380.3,780.5,380.6,782.5,382.1,783.5z M368.4,771.1
		L368.4,771.1c1.1,1.4,3.2,1.5,4.5,0.4c1.4-1.1,1.5-3.2,0.4-4.5h0c-1.1-1.4-3.2-1.5-4.5-0.4C367.5,767.7,367.3,769.7,368.4,771.1
		L368.4,771.1z" style="fill: rgb(255, 52, 0);"></path>
	<path class="st1" d="M439.2,757.4c0.8,0,1.7-0.3,2.3-0.9c0.6-0.6,0.9-1.4,0.9-2.3c0-0.8-0.3-1.7-0.9-2.3c-0.6-0.6-1.4-0.9-2.3-0.9
		c-0.8,0-1.7,0.3-2.3,0.9c-0.6,0.6-0.9,1.4-0.9,2.3c0,0.8,0.3,1.7,0.9,2.3C437.5,757.1,438.3,757.4,439.2,757.4" style="fill: rgb(255, 52, 0);"></path>
	<path class="st1" d="M490.9,739.8L490.9,739.8c1.3-1.2,1.5-3.2,0.3-4.5c-1.2-1.3-3.2-1.5-4.5-0.3l0,0c-1.3,1.2-1.5,3.2-0.3,4.5
		C487.5,740.8,489.5,741,490.9,739.8L490.9,739.8z M475.2,749.9L475.2,749.9c1.6-0.8,2.3-2.7,1.5-4.3c-0.8-1.6-2.7-2.3-4.3-1.5h0
		c-1.6,0.8-2.3,2.7-1.5,4.3C471.7,750,473.6,750.7,475.2,749.9L475.2,749.9z M457.6,756.1L457.6,756.1c1.7-0.4,2.8-2.1,2.4-3.8
		c-0.4-1.7-2.1-2.8-3.8-2.4l0,0c-1.7,0.4-2.8,2.1-2.4,3.8C454.2,755.4,455.9,756.5,457.6,756.1L457.6,756.1L457.6,756.1z" style="fill: rgb(255, 52, 0);"></path>
	<path class="st1" d="M498.5,725.9c0.8,0,1.7-0.3,2.3-0.9c0.6-0.6,0.9-1.4,0.9-2.3s-0.3-1.7-0.9-2.3c-0.6-0.6-1.4-0.9-2.3-0.9
		c-0.8,0-1.7,0.3-2.3,0.9c-0.6,0.6-0.9,1.4-0.9,2.3s0.3,1.7,0.9,2.3C496.9,725.6,497.7,725.9,498.5,725.9" style="fill: rgb(255, 52, 0);"></path>
	<path class="st1" d="M727,514L727,514c0.1-1.8-1.2-3.3-3-3.4c-1.8-0.1-3.3,1.2-3.4,3c-0.1,1.8,1.2,3.3,3,3.4
		C725.3,517,726.9,515.7,727,514z M724.6,531.7L724.6,531.7c0.3-1.7-0.8-3.4-2.5-3.8c-1.7-0.3-3.4,0.8-3.8,2.5v0
		c-0.3,1.7,0.8,3.4,2.5,3.8C722.5,534.6,724.2,533.4,724.6,531.7L724.6,531.7z M720.1,549L720.1,549c0.5-1.7-0.4-3.5-2.1-4
		c-1.7-0.5-3.5,0.4-4,2.1h0c-0.5,1.7,0.4,3.5,2.1,4C717.8,551.6,719.6,550.7,720.1,549L720.1,549L720.1,549z M714.2,565.7
		L714.2,565.7c0.7-1.6-0.1-3.5-1.8-4.2c-1.6-0.7-3.5,0.1-4.2,1.8h0c-0.7,1.6,0.1,3.5,1.8,4.2C711.7,568.2,713.5,567.4,714.2,565.7
		L714.2,565.7z M707,581.9L707,581.9c0.8-1.6,0.1-3.5-1.5-4.3s-3.5-0.1-4.3,1.5l0,0c-0.8,1.6-0.1,3.5,1.5,4.3
		C704.4,584.2,706.3,583.5,707,581.9L707,581.9z M698.8,597.6L698.8,597.6c0.9-1.5,0.3-3.5-1.2-4.4c-1.5-0.9-3.5-0.3-4.4,1.2
		c-0.9,1.5-0.3,3.5,1.2,4.4C696,599.7,698,599.2,698.8,597.6z M689.7,612.8L689.7,612.8c1-1.5,0.5-3.5-0.9-4.4
		c-1.5-1-3.5-0.5-4.4,0.9c-1,1.5-0.5,3.5,0.9,4.4C686.7,614.7,688.7,614.3,689.7,612.8z M679.6,627.4L679.6,627.4
		c1.1-1.4,0.8-3.4-0.7-4.5c-1.4-1.1-3.4-0.8-4.5,0.7h0c-1.1,1.4-0.8,3.4,0.7,4.5C676.5,629.1,678.5,628.8,679.6,627.4L679.6,627.4z
		 M668.5,641.2L668.5,641.2c1.2-1.3,1-3.4-0.4-4.5c-1.3-1.2-3.4-1-4.5,0.4l0,0c-1.2,1.3-1,3.4,0.4,4.5
		C665.4,642.7,667.4,642.6,668.5,641.2L668.5,641.2z M656.5,654.3L656.5,654.3c1.3-1.3,1.3-3.3,0-4.5c-1.3-1.3-3.3-1.3-4.5,0l0,0
		c-1.3,1.3-1.3,3.3,0,4.5C653.2,655.5,655.2,655.5,656.5,654.3L656.5,654.3z M643.3,666.3L643.3,666.3c1.4-1.1,1.6-3.1,0.5-4.5
		c-1.1-1.4-3.1-1.6-4.5-0.5c-1.4,1.1-1.6,3.1-0.5,4.5C639.9,667.2,641.9,667.4,643.3,666.3z M629.1,676.9L629.1,676.9
		c1.4-1,1.8-3,0.8-4.5c-1-1.4-3-1.8-4.5-0.8h0c-1.4,1-1.8,3-0.8,4.5C625.7,677.6,627.7,677.9,629.1,676.9L629.1,676.9L629.1,676.9z
		 M614.5,686.8L614.5,686.8c1.5-1,1.9-2.9,1-4.4c-1-1.5-2.9-1.9-4.4-1c-1.5,1-1.9,2.9-1,4.4C611,687.3,613,687.8,614.5,686.8z
		 M599.4,696L599.4,696c1.5-0.9,2.1-2.8,1.2-4.4c-0.9-1.5-2.8-2.1-4.4-1.2h0c-1.5,0.9-2.1,2.8-1.2,4.4
		C595.9,696.4,597.9,696.9,599.4,696L599.4,696L599.4,696z M583.8,704.4L583.8,704.4c1.6-0.8,2.2-2.7,1.4-4.3
		c-0.8-1.6-2.7-2.2-4.3-1.4l0,0c-1.6,0.8-2.2,2.7-1.4,4.3C580.3,704.6,582.3,705.2,583.8,704.4L583.8,704.4z M567.8,711.9
		L567.8,711.9c1.6-0.7,2.4-2.6,1.7-4.2c-0.7-1.6-2.6-2.4-4.2-1.7h0c-1.6,0.7-2.4,2.6-1.7,4.2C564.3,711.8,566.1,712.6,567.8,711.9
		L567.8,711.9z M551.2,718.2L551.2,718.2c1.7-0.6,2.6-2.4,2-4.1c-0.6-1.7-2.4-2.6-4.1-2v0c-1.7,0.6-2.6,2.4-2,4.1
		C547.7,717.9,549.5,718.8,551.2,718.2L551.2,718.2z M534,723L534,723c1.7-0.4,2.8-2.1,2.4-3.8c-0.4-1.7-2.1-2.8-3.8-2.4h0
		c-1.7,0.4-2.8,2.1-2.4,3.8S532.3,723.4,534,723L534,723L534,723z M516.3,725.8L516.3,725.8c1.8-0.2,3.1-1.7,2.9-3.5
		c-0.2-1.8-1.7-3.1-3.5-2.9h0c-1.8,0.2-3.1,1.7-2.9,3.5C513,724.7,514.5,726,516.3,725.8L516.3,725.8z" style="fill: rgb(255, 52, 0);"></path>
	<path class="st1" d="M723.7,499.5c0.8,0,1.7-0.3,2.3-0.9c0.6-0.6,0.9-1.4,0.9-2.3c0-0.8-0.3-1.7-0.9-2.3c-0.6-0.6-1.4-0.9-2.3-0.9
		c-0.8,0-1.7,0.3-2.3,0.9c-0.6,0.6-0.9,1.4-0.9,2.3c0,0.8,0.3,1.7,0.9,2.3C722,499.1,722.9,499.5,723.7,499.5" style="fill: rgb(255, 52, 0);"></path>
	<path class="st1" d="M761.4,456L761.4,456c0.4-1.7-0.6-3.5-2.4-3.9c-1.7-0.4-3.5,0.6-3.9,2.4v0c-0.4,1.7,0.6,3.5,2.4,3.9
		C759.2,458.8,761,457.7,761.4,456L761.4,456z M754.3,474.4L754.3,474.4c0.8-1.6,0.2-3.5-1.3-4.3c-1.6-0.8-3.5-0.2-4.3,1.3h0
		c-0.8,1.6-0.2,3.5,1.3,4.3C751.6,476.6,753.5,476,754.3,474.4L754.3,474.4L754.3,474.4z M742.8,490.6L742.8,490.6
		c1.3-1.2,1.3-3.3,0.1-4.5c-1.2-1.3-3.3-1.3-4.5-0.1h0c-1.3,1.2-1.3,3.3-0.1,4.5C739.5,491.9,741.5,491.9,742.8,490.6L742.8,490.6z" style="fill: rgb(255, 52, 0);"></path>
	<path class="st1" d="M759.9,439.6c0.8,0,1.7-0.3,2.3-0.9c0.6-0.6,0.9-1.4,0.9-2.3c0-0.8-0.3-1.7-0.9-2.3c-0.6-0.6-1.4-0.9-2.3-0.9
		c-0.8,0-1.7,0.3-2.3,0.9c-0.6,0.6-0.9,1.4-0.9,2.3c0,0.8,0.3,1.7,0.9,2.3C758.2,439.2,759,439.6,759.9,439.6" style="fill: rgb(255, 52, 0);"></path>
	<path class="st1" d="M777,365.7L777,365.7c-1.3-1.2-3.4-1-4.5,0.3c-1.2,1.3-1,3.4,0.3,4.5l0,0c1.3,1.2,3.4,1,4.5-0.3
		C778.5,368.9,778.3,366.9,777,365.7L777,365.7z M789.4,379.4L789.4,379.4c-1-1.5-3-1.8-4.5-0.8c-1.5,1-1.8,3-0.8,4.5h0
		c1,1.5,3,1.8,4.5,0.8C790,382.9,790.4,380.9,789.4,379.4L789.4,379.4L789.4,379.4z M796,397.6L796,397.6c0-1.8-1.4-3.2-3.2-3.2
		c-1.8,0-3.2,1.4-3.2,3.2h0c0,1.8,1.4,3.2,3.2,3.2C794.5,400.8,796,399.3,796,397.6L796,397.6L796,397.6z M789.2,415.6L789.2,415.6
		c1-1.5,0.7-3.5-0.8-4.5c-1.5-1-3.5-0.7-4.5,0.8h0c-1,1.5-0.7,3.5,0.8,4.5C786.2,417.4,788.2,417.1,789.2,415.6L789.2,415.6z
		 M776.7,429.2L776.7,429.2c1.4-1.1,1.5-3.2,0.4-4.5c-1.1-1.4-3.2-1.5-4.5-0.4l0,0c-1.4,1.1-1.5,3.2-0.4,4.5
		C773.3,430.2,775.4,430.3,776.7,429.2L776.7,429.2z" style="fill: rgb(255, 52, 0);"></path>
	<path class="st2" d="M632.4,448.3c-7.3,8.5-11.5,19.8-11.5,31.1c0,6.8,1.5,13.3,4.4,19c1.8,3.6,4.2,6.9,7.2,9.8
		c-13.4,2.4-24.7,11.4-30.3,24.7c-2.5,5.9-3.8,11.8-3.8,17.6c0,8.9,2.9,17.1,8.3,23.6c-3.9-1.4-8-2.1-12.2-2.1
		c-19.2,0-35.7,14.4-38.6,33.5l-0.1,0.4c-0.2,1.6-0.3,3.1-0.3,4.6c0,1.2,0.1,2.5,0.2,3.7c-7,4.1-14.6,7.4-22.9,9.9
		c-0.6-0.8-1.3-1.7-1.9-2.5c-8.7-10.6-21.3-16.4-35.7-16.4c-18.2,0.1-36.5,9.4-47.7,24.4c-5.7,7.7-9.3,16.5-10.7,25.9
		c-5.4-8.6-9.5-16.7-11.9-22.1c-1.4-3.1-2.5-5.6-3.1-7.2c-0.3-0.8-0.5-1.4-0.7-1.8l-0.2-0.5c-0.3-0.9-0.7-1.9-1.2-2.8
		c-0.3-0.5-0.6-1-0.8-1.5c-0.9-1.5-1.9-2.7-3-3.9c-0.7-0.7-1.4-1.4-2.4-2.1c-1-0.8-2-1.4-3.1-2c-1-0.6-2.1-1-3.2-1.4
		c-0.8-0.3-1.7-0.5-2.6-0.7c-1.2-0.2-2.4-0.4-3.4-0.4c-0.3,0-0.9,0-1.2,0l-0.3,0c-1.1,0-2.1,0.1-3.2,0.3c-1.4,0.2-2.7,0.6-4,1.1
		c-0.9,0.3-1.7,0.7-2.4,1c-1.5,0.8-3,1.7-4.3,2.9c-0.8,0.7-1.5,1.4-2.2,2.1c-1.6,1.9-3,4-3.8,6.1c-0.2,0.4-0.4,0.9-0.5,1.2l-0.2,0.6
		c-1,2.8-6.3,16.5-16,31.6c-1.3-9.5-4.9-18.5-10.8-26.4c-11.2-15-29.5-24.4-47.8-24.4c-14.3,0-26.9,5.8-35.5,16.3
		c-0.7,0.8-1.3,1.7-2,2.5c-8.3-2.5-15.9-5.8-22.9-9.9c0.1-1.2,0.2-2.4,0.2-3.6c0-1.6-0.1-3.2-0.4-5c-2.8-19.1-19.4-33.5-38.6-33.5
		c-4.2,0-8.3,0.7-12.2,2c5.4-6.5,8.3-14.7,8.3-23.5c0-5.8-1.3-11.7-3.7-17.5c-5.6-13.3-16.8-22.3-30.3-24.7c2.9-3,5.4-6.3,7.2-9.9
		c2.9-5.6,4.4-12.2,4.4-19c0-11.2-4.2-22.6-11.5-31c-7.1-8.3-16.6-13.5-27.5-15.2c8-4.9,15.5-8.6,20.6-10.9c3.2-1.4,5.7-2.4,7.2-3
		c0.8-0.3,1.5-0.6,1.8-0.7l0.4-0.1c0.5-0.2,1-0.3,1.3-0.5c2.2-0.9,4.2-2.1,6.1-3.7c0.9-0.8,1.7-1.6,2.4-2.5c1-1.2,1.9-2.5,2.6-3.9
		c0.5-0.9,0.9-1.8,1.2-2.8c0.5-1.2,0.8-2.5,1-3.8c0.2-0.9,0.2-1.8,0.3-2.7c0-0.8,0-1.4,0-1.9c0-1.1-0.2-2.3-0.4-3.3
		c-0.2-1.1-0.5-2.2-0.8-3.2c-0.3-1-0.8-1.9-1.3-2.8c-0.6-1.1-1.3-2.2-1.8-3c-0.7-0.9-1.4-1.8-2.3-2.7c-1.2-1.1-2.5-2.1-3.7-2.9
		c-0.5-0.3-1.1-0.6-1.6-0.9c-0.9-0.5-1.9-0.9-2.7-1.2l-0.5-0.2c-2.7-1-15.7-6.1-30.2-15.3c11-1.6,20.7-6.9,27.9-15.2
		c7.3-8.5,11.5-19.8,11.5-31.1c0-6.8-1.5-13.3-4.4-19c-1.8-3.6-4.2-6.9-7.2-9.8c13.4-2.4,24.7-11.4,30.3-24.7
		c2.5-5.9,3.8-11.8,3.8-17.6c0-8.9-2.9-17.1-8.3-23.6c3.9,1.4,8,2.1,12.2,2.1c19.2,0,35.7-14.5,38.6-33.7c0.2-1.7,0.3-3.3,0.3-4.7
		c0-1.2-0.1-2.5-0.2-3.7c7-4.1,14.6-7.4,22.9-9.9c0.6,0.8,1.3,1.7,1.9,2.5c8.6,10.6,21.3,16.4,35.7,16.4
		c18.2-0.1,36.5-9.4,47.7-24.5c5.8-7.8,9.4-16.8,10.7-26.3c5.6,8.7,9.7,17.1,12.2,22.6c1.1,2.5,2.2,4.9,3.1,7.2
		c0.3,0.8,0.5,1.4,0.7,1.9l0.1,0.4c0.2,0.5,0.4,1,0.5,1.4c0.9,2.1,2.2,4.1,3.8,6c0.7,0.8,1.5,1.5,2.3,2.2c1.3,1.1,2.6,2,3.8,2.6
		c0.9,0.5,1.9,0.9,2.8,1.2c1.3,0.5,2.5,0.8,3.6,1c1.1,0.2,2.3,0.3,3.4,0.3v0l0.3,0c0.4,0,0.7,0,1,0c1.1,0,2.2-0.2,3.2-0.3
		c1.2-0.2,2.5-0.5,3.7-1c0.9-0.3,1.7-0.7,2.6-1.2c1.1-0.6,2.1-1.2,3-1.9c1-0.7,1.9-1.5,2.7-2.4c1-1.1,1.9-2.2,2.7-3.5
		c0.3-0.5,0.6-1,1-1.7c0.4-0.7,0.7-1.3,0.9-2l0.5-1.3c1-2.8,6.3-16.3,15.7-31.2c1.3,9.3,5,18.2,10.7,25.9
		c11.2,15,29.5,24.4,47.8,24.4c14.2,0,26.8-5.8,35.5-16.3c0.7-0.8,1.3-1.7,2-2.5c8.3,2.5,15.9,5.8,22.9,9.9
		c-0.1,1.2-0.2,2.4-0.2,3.5c0,1.7,0.1,3.4,0.4,5.1c2.8,19,19.4,33.4,38.6,33.5c4.2,0,8.3-0.7,12.1-2c-5.4,6.5-8.3,14.7-8.3,23.5
		c0,5.8,1.3,11.7,3.7,17.5c5.6,13.3,16.8,22.3,30.3,24.7c-2.9,3-5.4,6.3-7.2,9.9c-2.9,5.6-4.4,12.2-4.4,19c0,11.2,4.2,22.6,11.5,31
		c7.1,8.4,16.8,13.6,27.7,15.2c-8.1,5-15.7,8.7-20.8,11c-3.2,1.4-5.7,2.4-7.2,3c-0.8,0.3-1.4,0.5-1.8,0.7l-1.3,0.5
		c-2.4,0.9-4.6,2.3-6.5,4c-0.8,0.7-1.6,1.5-2.2,2.3c-1,1.2-1.9,2.5-2.7,4c-0.5,0.9-0.9,1.8-1.2,2.7c-0.5,1.3-0.8,2.6-1,3.9
		c-0.1,0.9-0.2,1.8-0.2,2.4c0,0.8,0,1.4,0,1.9c0,0.2,0,0.4,0,0.6c0,0.9,0.1,1.7,0.3,2.5c0.2,1.2,0.5,2.4,0.9,3.5
		c0.4,1,0.8,2.1,1.4,3.1c0.5,1,1.1,2,1.9,3c0.7,0.9,1.4,1.7,2.2,2.5c1.1,1.1,2.2,2,3.5,2.7c0.5,0.4,1.2,0.8,2,1.2
		c0.8,0.4,1.5,0.7,2.3,1l0.7,0.2c2.7,1,15.6,6,30,15.1C649.2,434.7,639.5,439.9,632.4,448.3z" style="fill: rgb(255, 255, 255);"></path>
</g>
<g font-family="noto" id="svgTXT2" font-size="72"><text x="50%" y="53.44%" fill="FF0E00" text-anchor="middle" font-weight="bolder" style="fill: rgb(255, 14, 0);">Design</text></g><g font-family="noto" id="svgTXT" font-size="71"><text x="50%" y="37.105%" fill="2215FF" text-anchor="middle" font-weight="bolder" style="fill: rgb(34, 21, 255);">gachax</text><text x="50%" y="69.05499999999999%" fill="2215FF" text-anchor="middle" font-weight="bolder" style="fill: rgb(34, 21, 255);">Lab</text></g></svg>
